<?xml version="1.0" standalone="no"?>
<!DOCTYPE svg PUBLIC "-//W3C//DTD SVG 20010904//EN"
 "http://www.w3.org/TR/2001/REC-SVG-20010904/DTD/svg10.dtd">
<svg version="1.0" xmlns="http://www.w3.org/2000/svg"
 width="50.000000pt" height="50.000000pt" viewBox="0 0 50.000000 50.000000"
 preserveAspectRatio="xMidYMid meet">

<g transform="translate(0.000000,50.000000) scale(0.100000,-0.100000)"
fill="#000000" stroke="none">
<path d="M195 491 c-188 -48 -254 -279 -119 -415 95 -95 253 -95 348 0 95 95
95 253 0 348 -56 56 -157 85 -229 67z m77 -205 c-4 -35 13 -33 30 4 10 23 20
30 40 30 36 0 42 -13 18 -43 -25 -31 -25 -39 0 -62 11 -10 20 -22 20 -27 0
-15 -67 -9 -81 8 -11 14 -13 14 -21 0 -24 -44 -99 -3 -139 76 -24 48 -24 48
10 48 20 0 32 -6 36 -19 3 -11 13 -25 22 -33 14 -11 15 -9 11 19 -5 35 5 44
37 33 14 -6 19 -15 17 -34z"/>
</g>
</svg>
