<svg width="457" height="378" viewBox="0 0 457 378" fill="none" xmlns="http://www.w3.org/2000/svg">
<path d="M52.7461 16.432V18.784C52.7461 18.928 52.6661 19 52.5061 19H44.5621C44.4181 19 44.3461 18.928 44.3461 18.784V2.416C44.3461 2.272 44.4181 2.2 44.5621 2.2H52.5061C52.6661 2.2 52.7461 2.272 52.7461 2.416L52.0741 4.84C52.0421 4.952 51.9701 5.008 51.8581 5.008H47.1301V9.208H50.4181C50.5621 9.208 50.6341 9.28 50.6341 9.424V11.776C50.6341 11.92 50.5621 11.992 50.4181 11.992H47.1301V16.192H52.5061C52.6661 16.192 52.7461 16.272 52.7461 16.432ZM62.7768 2.416V16.192C62.7768 16.576 62.7048 16.944 62.5608 17.296C62.4168 17.632 62.2168 17.928 61.9608 18.184C61.7048 18.44 61.4008 18.64 61.0488 18.784C60.7128 18.928 60.3528 19 59.9688 19H57.1848C56.8008 19 56.4328 18.928 56.0808 18.784C55.7448 18.64 55.4488 18.44 55.1928 18.184C54.9368 17.928 54.7368 17.632 54.5928 17.296C54.4488 16.944 54.3768 16.576 54.3768 16.192V2.416C54.3768 2.272 54.4488 2.2 54.5928 2.2H56.9448C57.1048 2.2 57.1848 2.272 57.1848 2.416V15.976C57.1848 16.12 57.2568 16.192 57.4008 16.192H59.7528C59.8968 16.192 59.9688 16.12 59.9688 15.976V2.416C59.9688 2.272 60.0488 2.2 60.2088 2.2H62.5608C62.7048 2.2 62.7768 2.272 62.7768 2.416ZM64.408 2.416C64.408 2.272 64.48 2.2 64.624 2.2H70C70.384 2.2 70.744 2.272 71.08 2.416C71.432 2.56 71.736 2.76 71.992 3.016C72.248 3.272 72.448 3.576 72.592 3.928C72.736 4.264 72.808 4.624 72.808 5.008V9.208C72.808 9.864 72.608 10.44 72.208 10.936C71.808 11.416 71.304 11.744 70.696 11.92L72.712 18.712C72.744 18.792 72.736 18.864 72.688 18.928C72.656 18.976 72.6 19 72.52 19H70.168C70.088 19 70.016 18.944 69.952 18.832L67.912 11.992H67.216V18.784C67.216 18.928 67.136 19 66.976 19H64.624C64.48 19 64.408 18.928 64.408 18.784V2.416ZM67.216 5.008V9.208H69.784C69.928 9.208 70 9.128 70 8.968V5.224C70 5.08 69.928 5.008 69.784 5.008H67.216ZM80.0313 2.2C80.4153 2.2 80.7753 2.272 81.1113 2.416C81.4633 2.56 81.7673 2.76 82.0233 3.016C82.2793 3.272 82.4793 3.576 82.6233 3.928C82.7673 4.264 82.8393 4.624 82.8393 5.008V16.192C82.8393 16.576 82.7673 16.944 82.6233 17.296C82.4793 17.632 82.2793 17.928 82.0233 18.184C81.7673 18.44 81.4633 18.64 81.1113 18.784C80.7753 18.928 80.4153 19 80.0313 19H77.2473C76.8633 19 76.4953 18.928 76.1433 18.784C75.8073 18.64 75.5113 18.44 75.2553 18.184C74.9993 17.928 74.7993 17.632 74.6553 17.296C74.5113 16.944 74.4393 16.576 74.4393 16.192V5.008C74.4393 4.624 74.5113 4.264 74.6553 3.928C74.7993 3.576 74.9993 3.272 75.2553 3.016C75.5113 2.76 75.8073 2.56 76.1433 2.416C76.4953 2.272 76.8633 2.2 77.2473 2.2H80.0313ZM79.8153 16.192C79.9593 16.192 80.0313 16.12 80.0313 15.976V5.224C80.0313 5.08 79.9593 5.008 79.8153 5.008H77.4633C77.3193 5.008 77.2473 5.08 77.2473 5.224V15.976C77.2473 16.12 77.3193 16.192 77.4633 16.192H79.8153ZM94.0469 2.2C94.4309 2.2 94.7909 2.272 95.1269 2.416C95.4789 2.56 95.7829 2.76 96.0389 3.016C96.2949 3.272 96.4949 3.576 96.6389 3.928C96.7829 4.264 96.8549 4.624 96.8549 5.008V16.192C96.8549 16.464 96.8149 16.744 96.7349 17.032C96.7189 17.08 96.7029 17.128 96.6869 17.176C96.6709 17.208 96.6549 17.248 96.6389 17.296C96.5589 17.472 96.4709 17.632 96.3749 17.776C96.2789 17.92 96.1669 18.056 96.0389 18.184C95.7349 18.456 95.4309 18.664 95.1269 18.808C94.8229 18.936 94.4629 19 94.0469 19H88.6709C88.5269 19 88.4549 18.928 88.4549 18.784V2.416C88.4549 2.272 88.5269 2.2 88.6709 2.2H91.1909H91.2629H94.0469ZM94.0469 5.224C94.0469 5.08 93.9749 5.008 93.8309 5.008H91.2629V16.192H93.8309C93.9749 16.192 94.0469 16.12 94.0469 15.976V5.224ZM98.4862 2.416C98.4862 2.272 98.5582 2.2 98.7022 2.2H104.078C104.462 2.2 104.822 2.272 105.158 2.416C105.51 2.56 105.814 2.76 106.07 3.016C106.326 3.272 106.526 3.576 106.67 3.928C106.814 4.264 106.886 4.624 106.886 5.008V9.208C106.886 9.864 106.686 10.44 106.286 10.936C105.886 11.416 105.382 11.744 104.774 11.92L106.79 18.712C106.822 18.792 106.814 18.864 106.766 18.928C106.734 18.976 106.678 19 106.598 19H104.246C104.166 19 104.094 18.944 104.03 18.832L101.99 11.992H101.294V18.784C101.294 18.928 101.214 19 101.054 19H98.7022C98.5582 19 98.4862 18.928 98.4862 18.784V2.416ZM101.294 5.008V9.208H103.862C104.006 9.208 104.078 9.128 104.078 8.968V5.224C104.078 5.08 104.006 5.008 103.862 5.008H101.294ZM108.541 2.488C108.509 2.408 108.517 2.344 108.565 2.296C108.613 2.232 108.677 2.2 108.757 2.2H111.061C111.173 2.2 111.245 2.248 111.277 2.344L112.645 7.528L113.989 2.344C114.021 2.248 114.093 2.2 114.205 2.2H116.533C116.613 2.2 116.669 2.232 116.701 2.296C116.749 2.344 116.757 2.408 116.725 2.488L114.037 10.6V18.784C114.037 18.928 113.957 19 113.797 19H111.469C111.309 19 111.229 18.928 111.229 18.784V10.6L108.541 2.488ZM127.961 6.232V5.224C127.961 5.08 127.889 5.008 127.745 5.008H125.393C125.249 5.008 125.177 5.08 125.177 5.224V15.976C125.177 16.12 125.249 16.192 125.393 16.192H127.745C127.889 16.192 127.961 16.12 127.961 15.976V14.32C127.961 14.176 128.041 14.104 128.201 14.104H130.553C130.697 14.104 130.769 14.176 130.769 14.32V16.192C130.769 16.576 130.697 16.944 130.553 17.296C130.409 17.632 130.209 17.928 129.953 18.184C129.697 18.44 129.393 18.64 129.041 18.784C128.705 18.928 128.345 19 127.961 19H125.177C124.793 19 124.425 18.928 124.073 18.784C123.737 18.64 123.441 18.44 123.185 18.184C122.929 17.928 122.729 17.632 122.585 17.296C122.441 16.944 122.369 16.576 122.369 16.192V5.008C122.369 4.624 122.441 4.264 122.585 3.928C122.729 3.576 122.929 3.272 123.185 3.016C123.441 2.76 123.737 2.56 124.073 2.416C124.425 2.272 124.793 2.2 125.177 2.2H127.961C128.345 2.2 128.705 2.272 129.041 2.416C129.393 2.56 129.697 2.76 129.953 3.016C130.209 3.272 130.409 3.576 130.553 3.928C130.697 4.264 130.769 4.624 130.769 5.008V6.88C130.769 7.024 130.697 7.096 130.553 7.096L128.129 6.448C128.017 6.416 127.961 6.344 127.961 6.232ZM138.736 18.832C138.704 18.944 138.632 19 138.52 19H132.616C132.472 19 132.4 18.928 132.4 18.784V2.416C132.4 2.272 132.472 2.2 132.616 2.2H134.968C135.128 2.2 135.208 2.272 135.208 2.416V16.192H139.12C139.2 16.192 139.256 16.224 139.288 16.288C139.336 16.336 139.352 16.4 139.336 16.48L138.736 18.832ZM149.426 16.432V18.784C149.426 18.928 149.346 19 149.186 19H141.242C141.098 19 141.026 18.928 141.026 18.784V2.416C141.026 2.272 141.098 2.2 141.242 2.2H149.186C149.346 2.2 149.426 2.272 149.426 2.416L148.754 4.84C148.722 4.952 148.65 5.008 148.538 5.008H143.81V9.208H147.098C147.242 9.208 147.314 9.28 147.314 9.424V11.776C147.314 11.92 147.242 11.992 147.098 11.992H143.81V16.192H149.186C149.346 16.192 149.426 16.272 149.426 16.432ZM156.936 19C156.904 19 156.872 18.992 156.84 18.976C156.776 18.944 156.744 18.888 156.744 18.808V16.24H154.176L153.984 18.808C153.984 18.904 153.976 18.96 153.96 18.976C153.944 18.992 153.88 19 153.768 19H151.416C151.368 19 151.336 18.992 151.32 18.976C151.24 18.944 151.2 18.888 151.2 18.808L151.992 2.608C151.992 2.512 152 2.424 152.016 2.344C152.032 2.248 152.088 2.2 152.184 2.2H158.712C158.808 2.2 158.864 2.248 158.88 2.344C158.896 2.424 158.904 2.512 158.904 2.608L159.696 18.808C159.696 18.904 159.656 18.96 159.576 18.976C159.496 18.992 159.408 19 159.312 19H156.936ZM156.144 5.176H154.56L154.176 13.48H156.552L156.144 5.176ZM161.234 2.416C161.234 2.272 161.306 2.2 161.45 2.2H163.874C163.986 2.2 164.058 2.256 164.09 2.368L166.826 11.992V2.416C166.826 2.272 166.906 2.2 167.066 2.2H169.418C169.562 2.2 169.634 2.272 169.634 2.416V18.784C169.634 18.928 169.562 19 169.418 19H166.994C166.914 19 166.842 18.944 166.778 18.832L164.042 9.208V18.784C164.042 18.928 163.962 19 163.802 19H161.45C161.306 19 161.234 18.928 161.234 18.784V2.416ZM173.833 2.416V18.784C173.833 18.928 173.753 19 173.593 19H171.241C171.097 19 171.025 18.928 171.025 18.784V2.416C171.025 2.272 171.097 2.2 171.241 2.2H173.593C173.753 2.2 173.833 2.272 173.833 2.416ZM175.695 2.416C175.695 2.272 175.767 2.2 175.911 2.2H178.335C178.447 2.2 178.519 2.256 178.551 2.368L181.287 11.992V2.416C181.287 2.272 181.367 2.2 181.527 2.2H183.879C184.023 2.2 184.095 2.272 184.095 2.416V18.784C184.095 18.928 184.023 19 183.879 19H181.455C181.375 19 181.303 18.944 181.239 18.832L178.503 9.208V18.784C178.503 18.928 178.423 19 178.263 19H175.911C175.767 19 175.695 18.928 175.695 18.784V2.416ZM191.313 6.928V5.224C191.313 5.08 191.241 5.008 191.097 5.008H188.745C188.601 5.008 188.529 5.08 188.529 5.224V15.976C188.529 16.12 188.601 16.192 188.745 16.192H191.097C191.241 16.192 191.313 16.12 191.313 15.976V13.408H190.209C190.129 13.408 190.065 13.384 190.017 13.336C189.969 13.272 189.961 13.2 189.993 13.12L190.569 10.768C190.601 10.656 190.681 10.6 190.809 10.6H193.905C194.049 10.6 194.121 10.672 194.121 10.816V16.192C194.121 16.576 194.049 16.944 193.905 17.296C193.761 17.632 193.561 17.928 193.305 18.184C193.049 18.44 192.745 18.64 192.393 18.784C192.057 18.928 191.697 19 191.313 19H188.529C188.145 19 187.777 18.928 187.425 18.784C187.089 18.64 186.793 18.44 186.537 18.184C186.281 17.928 186.081 17.632 185.937 17.296C185.793 16.944 185.721 16.576 185.721 16.192V5.008C185.721 4.624 185.793 4.264 185.937 3.928C186.081 3.576 186.281 3.272 186.537 3.016C186.793 2.76 187.089 2.56 187.425 2.416C187.777 2.272 188.145 2.2 188.529 2.2H191.313C191.697 2.2 192.057 2.272 192.393 2.416C192.745 2.56 193.049 2.76 193.305 3.016C193.561 3.272 193.761 3.576 193.905 3.928C194.049 4.264 194.121 4.624 194.121 5.008V7.576C194.121 7.72 194.049 7.792 193.905 7.792L191.481 7.144C191.369 7.112 191.313 7.04 191.313 6.928Z" fill="#15D1D9"/>
<path d="M372.359 214.215C372.359 272.875 318.881 260.939 208.194 260.939C97.5076 260.939 0.335612 264.153 0.335612 205.494C0.335612 146.834 -11.1034 43.5195 99.5835 43.5195C210.27 43.5195 372.359 155.556 372.359 214.215Z" fill="#F0F0F0"/>
<path d="M44.6542 267.792H376.729L391.71 300.187H14.0684L44.6542 267.792Z" fill="#E3DFDF"/>
<rect x="90.8438" y="242.249" width="13.1082" height="19.3123" fill="#474747"/>
<rect x="286.219" y="242.249" width="13.1082" height="19.3123" fill="#474747"/>
<rect x="83.9785" y="196.771" width="217.222" height="50.4612" rx="18" fill="#15D1D9"/>
<rect x="90.8438" y="106.439" width="209.731" height="100.299" rx="18" fill="#15D1D9"/>
<rect x="90.8438" y="184.312" width="209.731" height="22.4272" rx="11.2136" fill="#29EBF3"/>
<rect x="77.7363" y="237.888" width="248.432" height="9.34467" rx="4.67233" fill="#29EBF3"/>
<rect x="90.8438" y="142.572" width="104.66" height="41.8215" rx="18" transform="rotate(90 90.8438 142.572)" fill="#02B4BE"/>
<path d="M49.0349 156.838C49.1723 156.153 50.1505 156.146 50.2966 156.83L63.9759 220.892C65.1338 226.315 69.3421 230.568 74.7523 231.783L84.5251 233.977C87.8821 234.731 89.821 238.254 88.6618 241.494C88.069 243.15 86.7475 244.442 85.078 244.998L80.6975 246.455C79.1491 246.97 77.5278 247.233 75.896 247.233L67.0223 247.233C57.0812 247.233 49.0223 239.174 49.0223 229.233L49.0223 156.965C49.0223 156.922 49.0265 156.88 49.0349 156.838Z" fill="#99E4E8"/>
<rect x="341.148" y="142.572" width="104.66" height="41.8215" rx="18" transform="rotate(90 341.148 142.572)" fill="#02B4BE"/>
<path d="M341.137 157.462C341 156.777 340.021 156.77 339.875 157.454L326.196 221.516C325.038 226.939 320.83 231.192 315.42 232.407L305.647 234.601C302.29 235.355 300.351 238.878 301.51 242.118C302.103 243.774 303.424 245.066 305.094 245.622L309.474 247.079C311.023 247.594 312.644 247.857 314.276 247.857L323.15 247.857C333.091 247.857 341.15 239.798 341.15 229.857L341.15 157.589C341.15 157.546 341.145 157.504 341.137 157.462Z" fill="#99E4E8"/>
<line x1="192.09" y1="184.312" x2="192.09" y2="106.439" stroke="#02B4BE"/>
<line x1="136.705" y1="125.091" x2="124.684" y2="137.112" stroke="#02B4BE"/>
<line x1="136.059" y1="137.029" x2="124.038" y2="125.009" stroke="#02B4BE"/>
<line x1="189.775" y1="125.119" x2="177.755" y2="137.14" stroke="#02B4BE"/>
<line x1="189.096" y1="137.032" x2="177.075" y2="125.011" stroke="#02B4BE"/>
<line x1="242.844" y1="125.147" x2="230.823" y2="137.168" stroke="#02B4BE"/>
<line x1="242.135" y1="137.035" x2="230.114" y2="125.014" stroke="#02B4BE"/>
<line x1="295.666" y1="124.927" x2="283.645" y2="136.948" stroke="#02B4BE"/>
<line x1="295.926" y1="136.287" x2="283.905" y2="124.266" stroke="#02B4BE"/>
<line x1="136.705" y1="164.338" x2="124.684" y2="176.359" stroke="#02B4BE"/>
<line x1="136.059" y1="176.276" x2="124.038" y2="164.256" stroke="#02B4BE"/>
<line x1="189.775" y1="164.366" x2="177.755" y2="176.387" stroke="#02B4BE"/>
<line x1="189.096" y1="176.279" x2="177.075" y2="164.259" stroke="#02B4BE"/>
<line x1="242.844" y1="164.395" x2="230.823" y2="176.415" stroke="#02B4BE"/>
<line x1="242.135" y1="176.282" x2="230.114" y2="164.261" stroke="#02B4BE"/>
<line x1="295.666" y1="164.174" x2="283.645" y2="176.195" stroke="#02B4BE"/>
<line x1="295.926" y1="175.534" x2="283.905" y2="163.513" stroke="#02B4BE"/>
<line y1="-0.5" x2="13.719" y2="-0.5" transform="matrix(-0.707954 0.706258 -0.707954 -0.706258 154.512 146.936)" stroke="#02B4BE"/>
<line y1="-0.5" x2="13.719" y2="-0.5" transform="matrix(-0.707954 -0.706258 0.707955 -0.706258 155.137 156.902)" stroke="#02B4BE"/>
<line y1="-0.5" x2="13.719" y2="-0.5" transform="matrix(-0.707954 0.706258 -0.707954 -0.706258 240.029 147.557)" stroke="#02B4BE"/>
<line y1="-0.5" x2="13.719" y2="-0.5" transform="matrix(-0.707954 -0.706258 0.707955 -0.706258 240.652 157.523)" stroke="#02B4BE"/>
<path d="M181.355 269.658C183.979 263.066 153.579 269.817 154.514 265.297C150.769 272.83 126.799 263.819 128.298 269.658C128.298 272.154 139.926 273.396 154.514 273.396C162.944 273.396 181.355 272.154 181.355 269.658Z" fill="#040404"/>
<ellipse cx="154.827" cy="268.412" rx="26.5285" ry="3.11489" fill="#2F3E53"/>
<rect x="152.016" y="179.949" width="5.61781" height="87.2169" rx="2" fill="#1A2536"/>
<path d="M211.315 180.572C216.964 166.374 152.499 180.34 154.513 170.604C146.449 186.831 94.4837 167.997 97.7105 180.572C97.7105 185.949 123.106 188.048 154.513 188.048C172.662 188.048 211.315 185.949 211.315 180.572Z" fill="#040404"/>
<ellipse cx="154.511" cy="177.457" rx="56.8023" ry="6.85276" fill="#2F3E53"/>
<path d="M57.4416 262.972C57.0963 262.946 56.7497 263.009 56.4358 263.156L36.8752 272.306C35.5591 272.922 35.3131 274.684 36.4115 275.628L48.3882 285.922C50.245 287.517 52.8055 285.017 51.2439 283.133L47.958 279.168C46.9736 277.981 47.6573 276.172 49.1852 275.923L71.0091 272.358C71.157 272.334 71.3018 272.294 71.4407 272.237L80.5574 268.541C82.5175 267.747 82.074 264.862 79.9668 264.7L57.4416 262.972Z" fill="#FF7B00"/>
<path d="M94.5654 194.232C93.9682 192.413 91.4025 192.392 90.7755 194.201L85.8769 208.334C85.4288 209.627 86.382 210.977 87.7501 210.989L97.3145 211.066C98.6827 211.077 99.6579 209.742 99.2311 208.442L94.5654 194.232Z" fill="#FF7B00"/>
<path d="M70.7555 200.07C69.2783 199.011 67.2651 200.296 67.6197 202.072L70.0812 214.405C70.3569 215.786 71.9436 216.46 73.1327 215.7L80.9276 210.722C82.1167 209.963 82.1606 208.248 81.0119 207.424L70.7555 200.07Z" fill="#FF7B00"/>
<path d="M57.7621 267.791C63.9126 285.567 76.4084 280.25 90.8448 280.25C105.281 280.25 114.386 268.596 115.189 255.954C115.304 254.136 103.409 219.821 88.9722 219.821C74.5358 219.821 51.6117 250.014 57.7621 267.791Z" fill="#FF9B58"/>
<path d="M60.258 218.575C60.258 229.718 71.1606 238.511 84.6018 238.511C98.043 238.511 115.904 224.82 111.442 211.1C102.113 195.362 108.536 214.3 92.7164 203.001C62.2946 204.212 78.1054 223.822 60.258 218.575Z" fill="#FF9B58"/>
<ellipse cx="1.24815" cy="1.55776" rx="1.24815" ry="1.55776" transform="matrix(-0.948232 0.317578 0.320863 0.947126 82.7285 213.592)" fill="black"/>
<ellipse cx="1.2484" cy="1.55744" rx="1.2484" ry="1.55744" transform="matrix(-1 0 0 1 93.3398 211.724)" fill="black"/>
<path d="M91.4663 222.936C91.4663 224.313 90.0302 226.051 88.9695 226.051C87.9087 226.051 86.8568 224.805 86.4727 223.559C88.0092 222.728 87.2845 221.067 88.3453 221.067C89.406 221.067 90.3139 222.521 91.4663 222.936Z" fill="#FF8989"/>
<path d="M88.7867 220.523C88.7867 220.523 90.9677 223.343 93.0247 223.434C95.9414 223.562 98.9519 218.328 98.9519 218.328" stroke="black" stroke-width="0.5" stroke-linecap="round"/>
<path d="M78.1773 222.393C78.1773 222.393 80.3583 225.213 82.4153 225.304C85.332 225.432 88.3425 220.198 88.3425 220.198" stroke="black" stroke-width="0.5" stroke-linecap="round"/>
<path d="M85.3515 219.843C85.4523 220.601 86.7063 221.55 88.0734 221.37C89.4405 221.191 90.4031 219.95 90.3023 219.192C90.2015 218.435 89.1118 218.72 87.7447 218.9C86.3776 219.08 85.2507 219.086 85.3515 219.843Z" fill="#FF0080"/>
<line y1="-0.5" x2="19.3479" y2="-0.5" transform="matrix(0.957734 -0.287656 -0.294703 -0.955589 104.576 216.085)" stroke="black"/>
<line y1="-0.5" x2="13.7325" y2="-0.5" transform="matrix(0.999749 -0.0224092 -0.0230094 -0.999735 106.451 218.577)" stroke="black"/>
<line y1="-0.5" x2="19.3451" y2="-0.5" transform="matrix(0.930051 0.367432 0.375902 -0.926659 105.201 219.822)" stroke="black"/>
<line y1="-0.5" x2="19.3447" y2="-0.5" transform="matrix(-1.00021 -0.0123823 0.0170467 -0.99956 73.3672 220.445)" stroke="black"/>
<line y1="-0.5" x2="13.7309" y2="-0.5" transform="matrix(-0.967228 0.254001 -0.256367 -0.966554 72.1191 223.56)" stroke="black"/>
<line y1="-0.5" x2="19.343" y2="-0.5" transform="matrix(-0.792169 0.609718 -0.618946 -0.785897 73.9922 224.807)" stroke="black"/>
<rect width="36.2034" height="4.98385" rx="2.49193" transform="matrix(-0.998601 0.0528863 0.053494 0.998568 104.576 229.789)" fill="#FF0004"/>
<ellipse cx="4.99361" cy="4.67233" rx="4.99361" ry="4.67233" transform="matrix(-1 0 0 1 92.7168 232.904)" fill="#FFFB00"/>
<rect width="2.4968" height="3.73787" transform="matrix(-0.999526 0.030797 0.0311516 0.999515 88.3457 229.789)" fill="black"/>
<ellipse cx="7.17799" cy="4.36105" rx="7.17799" ry="4.36105" transform="matrix(-0.988484 0.151328 0.153031 0.988221 108.32 270.906)" fill="#FF7B00"/>
<ellipse cx="7.17813" cy="4.36096" rx="7.17813" ry="4.36096" transform="matrix(-0.993436 -0.11439 -0.11569 0.993285 85.2246 273.398)" fill="#FF7B00"/>
<path d="M199.702 163.754C199.702 164.881 199.042 166.008 197.757 166.896C196.475 167.781 194.651 168.361 192.587 168.361C190.524 168.361 188.699 167.781 187.418 166.896C186.132 166.008 185.473 164.881 185.473 163.754C185.473 162.628 186.132 161.5 187.418 160.612C188.699 159.727 190.524 159.147 192.587 159.147C194.651 159.147 196.475 159.727 197.757 160.612C199.042 161.5 199.702 162.628 199.702 163.754Z" stroke="#DDDDDD" stroke-width="2"/>
<path d="M201.612 172.832L210.606 176.036L219.919 193.233" stroke="#5500FF" stroke-width="5"/>
<rect width="14.9515" height="19.9743" rx="1" transform="matrix(0.0459616 0.998943 -0.998953 0.045742 203.199 161.885)" fill="#DDDDDD"/>
<path d="M239.402 191.788C244.279 197.984 238.695 198.641 231.288 198.641C223.881 198.641 215.059 198.035 215.059 195.526C215.059 193.016 218.325 185.795 224.422 191.165C231.829 191.165 229.242 191.788 239.402 191.788Z" fill="#5500FF"/>
<rect width="19.9743" height="15.5745" transform="matrix(-0.998349 0.0574455 0.050608 0.998719 353.008 93.9795)" fill="#DA8759"/>
<path d="M349.064 81.5215C348.536 85.6165 350.873 89.3408 354.284 89.8398C357.695 90.3389 360.888 87.4238 361.416 83.3287C361.943 79.2337 359.606 75.5095 356.195 75.0104C352.784 74.5114 349.591 77.4265 349.064 81.5215Z" fill="#F79F6F"/>
<ellipse cx="4.36921" cy="7.47599" rx="4.36921" ry="7.47599" transform="matrix(-0.988527 0.151043 0.133357 0.991068 331.785 74.668)" fill="#F79F6F"/>
<path d="M326.036 106.089C323.879 102.778 319.563 101.981 316.368 104.304L269.206 138.583C265.86 141.015 264.975 145.824 267.234 149.291C269.48 152.738 273.981 153.548 277.288 151.101L324.179 116.403C327.376 114.038 328.207 109.42 326.036 106.089Z" fill="#FFC86E"/>
<path d="M383.594 159.393L334.906 155.655L325.543 158.77L339.9 286.481L353.008 287.727L357.377 199.887L367.365 287.727L380.473 286.481L383.594 159.393Z" fill="#78AAD9"/>
<path d="M374.231 103.325C374.231 103.325 328.164 102.108 318.677 103.325C309.189 104.542 324.919 158.77 324.919 158.77L383.594 159.393L374.231 103.325Z" fill="#FFC86F"/>
<path d="M327.6 85.2192C329.542 97.2355 333.398 98.9668 341.546 102.699C352.206 99.886 356.074 93.8812 358.278 79.5458C358.288 66.7703 357.426 63.1884 348.055 65.1155C339.617 60.8324 325.682 53.8621 327.6 85.2192Z" fill="#FFA878"/>
<path d="M360.703 64.0701C360.183 62.514 358.933 61.3118 357.358 60.8533L346.068 57.5668C345.296 57.342 344.48 57.3068 343.692 57.4643L331.455 59.9068C330.074 60.1824 328.874 61.0273 328.148 62.2339L327.377 63.5169C325.581 66.5044 327.316 70.3666 330.743 71.0078L342.868 73.2769C343.382 73.3731 343.908 73.388 344.427 73.3212L356.964 71.7066C360.087 71.3045 362.066 68.1503 361.068 65.1637L360.703 64.0701Z" fill="#E3DFDF"/>
<rect width="39.9489" height="4.36085" rx="2.18042" transform="matrix(-1 0 0 1 362.371 69.6846)" fill="#78AAD9"/>
<path d="M336.156 122.015L359.251 121.392L377.977 159.393H328.041L336.156 122.015Z" fill="#78AAD9"/>
<path d="M364.244 102.702H356.754V160.639H364.244V102.702Z" fill="#78AAD9"/>
<path d="M332.601 102.687L325.648 102.657L334.699 160.516L341.459 159.315L332.601 102.687Z" fill="#78AAD9"/>
<path d="M378.347 106.287C375.419 101.795 369.113 101.796 366.011 106.29L353.033 125.09C350.68 128.498 347.414 131.089 343.672 132.516L323.208 140.318C319.103 141.883 317.555 147.196 320.151 150.809C321.784 153.081 324.622 153.975 327.217 153.035L352.375 143.913C355.884 142.641 358.999 140.347 361.357 137.299L377.905 115.904C380.061 113.116 380.241 109.194 378.347 106.287Z" fill="#FFBE53"/>
<rect width="34.9475" height="14.331" transform="matrix(-0.941596 0.336745 0.296425 0.955056 311.186 137.588)" fill="#222222"/>
<path d="M317.916 133.397C308.138 123.005 284.422 145.375 284.422 145.375L290.147 163.823L323.641 151.844C323.641 151.844 322.885 138.677 317.916 133.397Z" fill="#9D9D9D"/>
<path d="M307.441 150.671L317.726 163.335L325.471 160.938L320.206 145.617L307.441 150.671Z" fill="#9D9D9D"/>
<ellipse cx="11.2306" cy="7.16683" rx="11.2306" ry="7.16683" transform="matrix(-0.879861 0.475232 0.429541 0.903048 328.041 136.343)" fill="#F6DDBB"/>
<ellipse cx="10.9197" cy="7.78939" rx="10.9197" ry="7.78939" transform="matrix(-0.907613 0.419808 0.37724 0.926116 277.48 134.474)" fill="#F6DDBB"/>
<ellipse cx="1.2484" cy="2.18042" rx="1.2484" ry="2.18042" transform="matrix(-1 0 0 1 338.027 77.1602)" fill="black"/>
<ellipse cx="1.2484" cy="2.18042" rx="1.2484" ry="2.18042" transform="matrix(-1 0 0 1 349.887 77.1602)" fill="black"/>
<path d="M336.777 90.2429C336.777 90.9323 339.078 93.3578 341.771 93.3578C344.464 93.3578 347.389 91.5553 347.389 90.8659C347.389 90.1765 344.464 90.2429 341.771 90.2429C339.078 90.2429 336.777 89.5535 336.777 90.2429Z" fill="white"/>
<path d="M336.778 90.8647C336.778 91.5774 339.717 96.4715 342.396 96.4715C345.075 96.4715 346.766 92.2004 346.766 91.4877C346.766 90.7749 344.451 92.7336 341.772 92.7336C339.093 92.7336 336.778 90.1519 336.778 90.8647Z" fill="#FF0000"/>
<path d="M347.389 90.8662C347.389 90.8662 344.744 96.7761 342.182 96.8944C339.413 97.0222 336.162 90.4211 336.162 90.4211" stroke="black"/>
<path d="M347.389 90.8662L336.17 90.2685" stroke="black" stroke-linecap="round"/>
<line y1="-0.5" x2="6.24201" y2="-0.5" transform="matrix(-1 -0.00078158 -0.000688297 1 338.65 75.291)" stroke="black"/>
<line y1="-0.5" x2="6.24201" y2="-0.5" transform="matrix(-0.999994 -0.0034511 -0.00303921 0.999995 351.762 75.291)" stroke="black"/>
<line y1="-0.5" x2="15.0033" y2="-0.5" transform="matrix(0.674281 0.719937 0.7272 -0.705845 295.607 150.189)" stroke="#222222"/>
<line y1="-0.5" x2="15.0033" y2="-0.5" transform="matrix(0.674281 0.719937 0.7272 -0.705845 288.779 152.183)" stroke="#222222"/>
<line y1="-0.5" x2="15.0033" y2="-0.5" transform="matrix(0.674281 0.719937 0.7272 -0.705845 281.951 154.176)" stroke="#222222"/>
<ellipse cx="0.936301" cy="0.934467" rx="0.936301" ry="0.934467" transform="matrix(-1 0 0 1 313.059 139.458)" fill="#FFC86E"/>
<ellipse cx="1.2484" cy="1.24596" rx="1.2484" ry="1.24596" transform="matrix(-1 0 0 1 316.18 138.213)" fill="#7D7D7D"/>
<path d="M366.116 291.464C366.116 295.937 378.805 295.202 389.212 295.202C399.618 295.202 399.199 291.576 399.199 287.103C371.95 284.104 385.885 283.365 375.479 283.365C365.073 283.365 366.116 286.991 366.116 291.464Z" fill="#FFF4E5"/>
<path d="M354.257 292.088C354.257 296.561 341.568 295.826 331.161 295.826C320.755 295.826 321.174 292.2 321.174 287.727C348.423 284.728 334.488 283.989 344.894 283.989C355.3 283.989 354.257 287.615 354.257 292.088Z" fill="#FFF4E5"/>
<line y1="-0.5" x2="5.60859" y2="-0.5" transform="matrix(-0.403538 0.914963 0.894135 0.447798 342.396 80.8975)" stroke="#DA8759"/>
<line y1="-0.5" x2="3.12068" y2="-0.5" transform="matrix(-0.962825 -0.270126 -0.239858 0.970808 342.396 86.5049)" stroke="#DA8759"/>
<path d="M50.0523 29.4556V28.4476C50.0523 28.3036 49.9803 28.2316 49.8363 28.2316H47.4843C47.3403 28.2316 47.2683 28.3036 47.2683 28.4476V39.1996C47.2683 39.3436 47.3403 39.4156 47.4843 39.4156H49.8363C49.9803 39.4156 50.0523 39.3436 50.0523 39.1996V37.5436C50.0523 37.3996 50.1323 37.3276 50.2923 37.3276H52.6443C52.7883 37.3276 52.8603 37.3996 52.8603 37.5436V39.4156C52.8603 39.7996 52.7883 40.1676 52.6443 40.5196C52.5003 40.8556 52.3003 41.1516 52.0443 41.4076C51.7883 41.6636 51.4843 41.8636 51.1323 42.0076C50.7963 42.1516 50.4363 42.2236 50.0523 42.2236H47.2683C46.8843 42.2236 46.5163 42.1516 46.1643 42.0076C45.8283 41.8636 45.5323 41.6636 45.2763 41.4076C45.0203 41.1516 44.8203 40.8556 44.6763 40.5196C44.5323 40.1676 44.4603 39.7996 44.4603 39.4156V28.2316C44.4603 27.8476 44.5323 27.4876 44.6763 27.1516C44.8203 26.7996 45.0203 26.4956 45.2763 26.2396C45.5323 25.9836 45.8283 25.7836 46.1643 25.6396C46.5163 25.4956 46.8843 25.4236 47.2683 25.4236H50.0523C50.4363 25.4236 50.7963 25.4956 51.1323 25.6396C51.4843 25.7836 51.7883 25.9836 52.0443 26.2396C52.3003 26.4956 52.5003 26.7996 52.6443 27.1516C52.7883 27.4876 52.8603 27.8476 52.8603 28.2316V30.1036C52.8603 30.2476 52.7883 30.3196 52.6443 30.3196L50.2203 29.6716C50.1083 29.6396 50.0523 29.5676 50.0523 29.4556ZM63.3837 25.6396V42.0076C63.3837 42.1516 63.3117 42.2236 63.1677 42.2236H60.8157C60.6557 42.2236 60.5757 42.1516 60.5757 42.0076V28.2316H57.7917V42.0076C57.7917 42.1516 57.7117 42.2236 57.5517 42.2236H55.1997C55.0557 42.2236 54.9837 42.1516 54.9837 42.0076V25.6396C54.9837 25.4956 55.0557 25.4236 55.1997 25.4236H63.1677C63.3117 25.4236 63.3837 25.4956 63.3837 25.6396ZM71.4775 42.2236C71.4455 42.2236 71.4135 42.2156 71.3815 42.1996C71.3175 42.1676 71.2855 42.1116 71.2855 42.0316V39.4636H68.7175L68.5255 42.0316C68.5255 42.1276 68.5175 42.1836 68.5015 42.1996C68.4855 42.2156 68.4215 42.2236 68.3095 42.2236H65.9575C65.9095 42.2236 65.8775 42.2156 65.8615 42.1996C65.7815 42.1676 65.7415 42.1116 65.7415 42.0316L66.5335 25.8316C66.5335 25.7356 66.5415 25.6476 66.5575 25.5676C66.5735 25.4716 66.6295 25.4236 66.7255 25.4236H73.2535C73.3495 25.4236 73.4055 25.4716 73.4215 25.5676C73.4375 25.6476 73.4455 25.7356 73.4455 25.8316L74.2375 42.0316C74.2375 42.1276 74.1975 42.1836 74.1175 42.1996C74.0375 42.2156 73.9495 42.2236 73.8535 42.2236H71.4775ZM70.6855 28.3996H69.1015L68.7175 36.7036H71.0935L70.6855 28.3996ZM81.8335 29.4556V28.4476C81.8335 28.3036 81.7615 28.2316 81.6175 28.2316H79.2655C79.1215 28.2316 79.0495 28.3036 79.0495 28.4476V39.1996C79.0495 39.3436 79.1215 39.4156 79.2655 39.4156H81.6175C81.7615 39.4156 81.8335 39.3436 81.8335 39.1996V37.5436C81.8335 37.3996 81.9135 37.3276 82.0735 37.3276H84.4255C84.5695 37.3276 84.6415 37.3996 84.6415 37.5436V39.4156C84.6415 39.7996 84.5695 40.1676 84.4255 40.5196C84.2815 40.8556 84.0815 41.1516 83.8255 41.4076C83.5695 41.6636 83.2655 41.8636 82.9135 42.0076C82.5775 42.1516 82.2175 42.2236 81.8335 42.2236H79.0495C78.6655 42.2236 78.2975 42.1516 77.9455 42.0076C77.6095 41.8636 77.3135 41.6636 77.0575 41.4076C76.8015 41.1516 76.6015 40.8556 76.4575 40.5196C76.3135 40.1676 76.2415 39.7996 76.2415 39.4156V28.2316C76.2415 27.8476 76.3135 27.4876 76.4575 27.1516C76.6015 26.7996 76.8015 26.4956 77.0575 26.2396C77.3135 25.9836 77.6095 25.7836 77.9455 25.6396C78.2975 25.4956 78.6655 25.4236 79.0495 25.4236H81.8335C82.2175 25.4236 82.5775 25.4956 82.9135 25.6396C83.2655 25.7836 83.5695 25.9836 83.8255 26.2396C84.0815 26.4956 84.2815 26.7996 84.4255 27.1516C84.5695 27.4876 84.6415 27.8476 84.6415 28.2316V30.1036C84.6415 30.2476 84.5695 30.3196 84.4255 30.3196L82.0015 29.6716C81.8895 29.6396 81.8335 29.5676 81.8335 29.4556ZM95.189 39.6556V42.0076C95.189 42.1516 95.109 42.2236 94.949 42.2236H87.005C86.861 42.2236 86.789 42.1516 86.789 42.0076V25.6396C86.789 25.4956 86.861 25.4236 87.005 25.4236H94.949C95.109 25.4236 95.189 25.4956 95.189 25.6396L94.517 28.0636C94.485 28.1756 94.413 28.2316 94.301 28.2316H89.573V32.4316H92.861C93.005 32.4316 93.077 32.5036 93.077 32.6476V34.9996C93.077 35.1436 93.005 35.2156 92.861 35.2156H89.573V39.4156H94.949C95.109 39.4156 95.189 39.4956 95.189 39.6556ZM104.388 25.6396L103.74 28.0636C103.708 28.1756 103.636 28.2316 103.524 28.2316H101.58V42.0076C101.58 42.1516 101.508 42.2236 101.364 42.2236H99.0121C98.8681 42.2236 98.7961 42.1516 98.7961 42.0076V28.2316H96.2041C96.0601 28.2316 95.9881 28.1516 95.9881 27.9916V25.6396C95.9881 25.4956 96.0601 25.4236 96.2041 25.4236H104.172C104.316 25.4236 104.388 25.4956 104.388 25.6396ZM118.46 34.5196C118.524 34.7116 118.556 34.9436 118.556 35.2156V39.4156C118.556 39.7996 118.484 40.1676 118.34 40.5196C118.196 40.8556 117.996 41.1516 117.74 41.4076C117.484 41.6636 117.18 41.8636 116.828 42.0076C116.492 42.1516 116.132 42.2236 115.748 42.2236H110.372C110.228 42.2236 110.156 42.1516 110.156 42.0076V25.6396C110.156 25.4956 110.228 25.4236 110.372 25.4236H115.052C115.324 25.4236 115.556 25.4556 115.748 25.5196C116.356 25.6796 116.86 26.0076 117.26 26.5036C117.66 26.9836 117.86 27.5596 117.86 28.2316V31.0156C117.86 31.7036 117.644 32.3036 117.212 32.8156C117.516 32.9916 117.78 33.2396 118.004 33.5596C118.228 33.8636 118.38 34.1836 118.46 34.5196ZM112.964 28.2316V32.4316H114.836C114.98 32.4316 115.052 32.3516 115.052 32.1916V28.4476C115.052 28.3036 114.98 28.2316 114.836 28.2316H112.964ZM112.964 39.4156H115.532C115.676 39.4156 115.748 39.3436 115.748 39.1996V35.4556C115.748 35.2956 115.676 35.2156 115.532 35.2156H112.964V39.4156ZM125.946 42.2236C125.914 42.2236 125.882 42.2156 125.85 42.1996C125.786 42.1676 125.754 42.1116 125.754 42.0316V39.4636H123.186L122.994 42.0316C122.994 42.1276 122.986 42.1836 122.97 42.1996C122.954 42.2156 122.89 42.2236 122.778 42.2236H120.426C120.378 42.2236 120.346 42.2156 120.33 42.1996C120.25 42.1676 120.21 42.1116 120.21 42.0316L121.002 25.8316C121.002 25.7356 121.01 25.6476 121.026 25.5676C121.042 25.4716 121.098 25.4236 121.194 25.4236H127.722C127.818 25.4236 127.874 25.4716 127.89 25.5676C127.906 25.6476 127.914 25.7356 127.914 25.8316L128.706 42.0316C128.706 42.1276 128.666 42.1836 128.586 42.1996C128.506 42.2156 128.418 42.2236 128.322 42.2236H125.946ZM125.154 28.3996H123.57L123.186 36.7036H125.562L125.154 28.3996ZM144.819 25.6396V42.0076C144.819 42.1516 144.747 42.2236 144.603 42.2236H131.043C130.899 42.2236 130.827 42.1516 130.827 42.0076V25.6396C130.827 25.4956 130.899 25.4236 131.043 25.4236H133.395C133.555 25.4236 133.635 25.4956 133.635 25.6396V39.4156H136.419V25.6396C136.419 25.4956 136.499 25.4236 136.659 25.4236H139.011C139.155 25.4236 139.227 25.4956 139.227 25.6396V39.4156H142.035V25.6396C142.035 25.4956 142.107 25.4236 142.251 25.4236H144.603C144.747 25.4236 144.819 25.4956 144.819 25.6396ZM154.728 25.6876L151.992 42.0316C151.96 42.1596 151.888 42.2236 151.776 42.2236H148.416C148.304 42.2236 148.232 42.1596 148.2 42.0316L147.816 39.6796C147.784 39.5036 147.856 39.4156 148.032 39.4156H149.64L150.096 36.6316H148.416C148.304 36.6316 148.232 36.5676 148.2 36.4396L146.4 25.6876C146.384 25.6076 146.4 25.5436 146.448 25.4956C146.496 25.4476 146.552 25.4236 146.616 25.4236H148.968C149.112 25.4236 149.184 25.4876 149.184 25.6156L150.552 33.8236L151.92 25.6156C151.952 25.4876 152.032 25.4236 152.16 25.4236H154.488C154.568 25.4236 154.632 25.4476 154.68 25.4956C154.728 25.5436 154.744 25.6076 154.728 25.6876ZM173.634 41.9836C173.634 42.1436 173.562 42.2236 173.418 42.2236H171.066C170.938 42.2236 170.858 42.1516 170.826 42.0076L170.154 33.1276L168.09 42.0556C168.058 42.1676 167.986 42.2236 167.874 42.2236H165.426C165.314 42.2236 165.242 42.1676 165.21 42.0556L163.146 33.1276L162.474 42.0076C162.442 42.1516 162.362 42.2236 162.234 42.2236H159.906C159.746 42.2236 159.666 42.1436 159.666 41.9836L161.034 25.6396C161.034 25.4956 161.106 25.4236 161.25 25.4236H163.674C163.786 25.4236 163.858 25.4796 163.89 25.5916L166.65 37.3276L169.41 25.5916C169.442 25.4796 169.514 25.4236 169.626 25.4236H172.05C172.194 25.4236 172.266 25.4956 172.266 25.6396L173.634 41.9836ZM183.83 39.6556V42.0076C183.83 42.1516 183.75 42.2236 183.59 42.2236H175.646C175.502 42.2236 175.43 42.1516 175.43 42.0076V25.6396C175.43 25.4956 175.502 25.4236 175.646 25.4236H183.59C183.75 25.4236 183.83 25.4956 183.83 25.6396L183.158 28.0636C183.126 28.1756 183.054 28.2316 182.942 28.2316H178.214V32.4316H181.502C181.646 32.4316 181.718 32.5036 181.718 32.6476V34.9996C181.718 35.1436 181.646 35.2156 181.502 35.2156H178.214V39.4156H183.59C183.75 39.4156 183.83 39.4956 183.83 39.6556ZM194.352 35.2156V39.4156C194.352 39.7996 194.28 40.1676 194.136 40.5196C193.992 40.8556 193.792 41.1516 193.536 41.4076C193.28 41.6636 192.976 41.8636 192.624 42.0076C192.288 42.1516 191.928 42.2236 191.544 42.2236H186.168C186.024 42.2236 185.952 42.1516 185.952 42.0076V25.6396C185.952 25.4956 186.024 25.4236 186.168 25.4236H193.368C193.448 25.4236 193.504 25.4556 193.536 25.5196C193.584 25.5676 193.6 25.6316 193.584 25.7116L193.008 28.0636C192.96 28.1756 192.88 28.2316 192.768 28.2316H188.76V32.4316H191.544C191.928 32.4316 192.288 32.5036 192.624 32.6476C192.976 32.7916 193.272 32.9916 193.512 33.2476C193.768 33.4876 193.968 33.7836 194.112 34.1356C194.272 34.4716 194.352 34.8316 194.352 35.2156ZM191.544 35.4556C191.544 35.2956 191.472 35.2156 191.328 35.2156H188.76V39.4156H191.328C191.472 39.4156 191.544 39.3436 191.544 39.1996V35.4556ZM205.134 39.6556V42.0076C205.134 42.1516 205.054 42.2236 204.894 42.2236H196.95C196.806 42.2236 196.734 42.1516 196.734 42.0076V25.6396C196.734 25.4956 196.806 25.4236 196.95 25.4236H204.894C205.054 25.4236 205.134 25.4956 205.134 25.6396L204.462 28.0636C204.43 28.1756 204.358 28.2316 204.246 28.2316H199.518V32.4316H202.806C202.95 32.4316 203.022 32.5036 203.022 32.6476V34.9996C203.022 35.1436 202.95 35.2156 202.806 35.2156H199.518V39.4156H204.894C205.054 39.4156 205.134 39.4956 205.134 39.6556ZM215.567 25.6396V42.0076C215.567 42.1516 215.487 42.2236 215.327 42.2236H212.975C212.831 42.2236 212.759 42.1516 212.759 42.0076V28.2316H211.367L209.975 42.0316C209.975 42.1596 209.903 42.2236 209.759 42.2236H206.687C206.527 42.2236 206.447 42.1516 206.447 42.0076V39.6556C206.447 39.4956 206.527 39.4156 206.687 39.4156H207.191C207.335 39.4156 207.407 39.3516 207.407 39.2236L208.535 25.6396C208.567 25.4956 208.647 25.4236 208.775 25.4236H215.327C215.487 25.4236 215.567 25.4956 215.567 25.6396ZM226.556 39.4156C226.556 39.7996 226.484 40.1676 226.34 40.5196C226.196 40.8556 225.996 41.1516 225.74 41.4076C225.484 41.6636 225.18 41.8636 224.828 42.0076C224.492 42.1516 224.132 42.2236 223.748 42.2236H218.372C218.228 42.2236 218.156 42.1516 218.156 42.0076V25.6396C218.156 25.4956 218.228 25.4236 218.372 25.4236H220.724C220.884 25.4236 220.964 25.4956 220.964 25.6396V32.4316H223.748C224.132 32.4316 224.492 32.5036 224.828 32.6476C225.18 32.7916 225.484 32.9916 225.74 33.2476C225.996 33.5036 226.196 33.7996 226.34 34.1356C226.484 34.4716 226.556 34.8316 226.556 35.2156V39.4156ZM223.748 35.4556C223.748 35.2956 223.676 35.2156 223.532 35.2156H220.964V39.4156H223.532C223.676 39.4156 223.748 39.3436 223.748 39.1996V35.4556Z" fill="#2F3E53"/>
<path d="M83.421 221.528L40.6044 214.702L45.5422 206.38L83.421 221.528Z" fill="white"/>
<path d="M54.1419 203.625C54.1419 207.13 51.4148 210.425 46.7316 212.874C42.0723 215.309 35.6009 216.831 28.4254 216.831C21.2499 216.831 14.7785 215.309 10.1192 212.874C5.43604 210.425 2.70898 207.13 2.70898 203.625C2.70898 200.121 5.43604 196.826 10.1192 194.377C14.7785 191.941 21.2499 190.42 28.4254 190.42C35.6009 190.42 42.0723 191.941 46.7316 194.377C51.4148 196.826 54.1419 200.121 54.1419 203.625Z" fill="white" stroke="white"/>
<path d="M19.8965 207.385C19.8965 207.479 19.8545 207.525 19.7705 207.525H18.3985C18.3238 207.525 18.2771 207.483 18.2585 207.399L17.8665 202.219L16.6625 207.427C16.6438 207.493 16.6018 207.525 16.5365 207.525H15.1085C15.0431 207.525 15.0011 207.493 14.9825 207.427L13.7785 202.219L13.3865 207.399C13.3678 207.483 13.3211 207.525 13.2465 207.525H11.8885C11.7951 207.525 11.7485 207.479 11.7485 207.385L12.5465 197.851C12.5465 197.767 12.5885 197.725 12.6725 197.725H14.0865C14.1518 197.725 14.1938 197.758 14.2125 197.823L15.8225 204.669L17.4325 197.823C17.4511 197.758 17.4931 197.725 17.5585 197.725H18.9725C19.0565 197.725 19.0985 197.767 19.0985 197.851L19.8965 207.385ZM25.3715 197.725C25.4555 197.725 25.4975 197.767 25.4975 197.851V207.399C25.4975 207.483 25.4555 207.525 25.3715 207.525H23.9995C23.9061 207.525 23.8595 207.483 23.8595 207.399V203.437H23.4535L22.2635 207.427C22.2448 207.493 22.2028 207.525 22.1375 207.525H20.7795C20.7328 207.525 20.6955 207.511 20.6675 207.483C20.6395 207.446 20.6348 207.404 20.6535 207.357L21.8435 203.395C21.6661 203.349 21.5215 203.288 21.4095 203.213C21.1668 203.073 20.9708 202.877 20.8215 202.625C20.6721 202.364 20.5975 202.093 20.5975 201.813V199.363C20.5975 199.139 20.6395 198.929 20.7235 198.733C20.8075 198.528 20.9241 198.351 21.0735 198.201C21.2228 198.052 21.3955 197.935 21.5915 197.851C21.7968 197.767 22.0115 197.725 22.2355 197.725H25.3715ZM23.8595 201.813V199.363H22.3615C22.2775 199.363 22.2355 199.405 22.2355 199.489V201.673C22.2355 201.767 22.2775 201.813 22.3615 201.813H23.8595ZM31.3734 197.725C31.4574 197.725 31.4994 197.767 31.4994 197.851V207.399C31.4994 207.483 31.4574 207.525 31.3734 207.525H30.0014C29.9081 207.525 29.8614 207.483 29.8614 207.399V203.437H29.4554L28.2654 207.427C28.2467 207.493 28.2047 207.525 28.1394 207.525H26.7814C26.7347 207.525 26.6974 207.511 26.6694 207.483C26.6414 207.446 26.6367 207.404 26.6554 207.357L27.8454 203.395C27.6681 203.349 27.5234 203.288 27.4114 203.213C27.1687 203.073 26.9727 202.877 26.8234 202.625C26.6741 202.364 26.5994 202.093 26.5994 201.813V199.363C26.5994 199.139 26.6414 198.929 26.7254 198.733C26.8094 198.528 26.9261 198.351 27.0754 198.201C27.2247 198.052 27.3974 197.935 27.5934 197.851C27.7987 197.767 28.0134 197.725 28.2374 197.725H31.3734ZM29.8614 201.813V199.363H28.3634C28.2794 199.363 28.2374 199.405 28.2374 199.489V201.673C28.2374 201.767 28.2794 201.813 28.3634 201.813H29.8614ZM37.3754 197.725C37.4594 197.725 37.5014 197.767 37.5014 197.851V207.399C37.5014 207.483 37.4594 207.525 37.3754 207.525H36.0034C35.91 207.525 35.8634 207.483 35.8634 207.399V203.437H35.4574L34.2674 207.427C34.2487 207.493 34.2067 207.525 34.1414 207.525H32.7834C32.7367 207.525 32.6994 207.511 32.6714 207.483C32.6434 207.446 32.6387 207.404 32.6574 207.357L33.8474 203.395C33.67 203.349 33.5254 203.288 33.4134 203.213C33.1707 203.073 32.9747 202.877 32.8254 202.625C32.676 202.364 32.6014 202.093 32.6014 201.813V199.363C32.6014 199.139 32.6434 198.929 32.7274 198.733C32.8114 198.528 32.928 198.351 33.0774 198.201C33.2267 198.052 33.3994 197.935 33.5954 197.851C33.8007 197.767 34.0154 197.725 34.2394 197.725H37.3754ZM35.8634 201.813V199.363H34.3654C34.2814 199.363 34.2394 199.405 34.2394 199.489V201.673C34.2394 201.767 34.2814 201.813 34.3654 201.813H35.8634ZM43.1302 197.879L41.5342 207.413C41.5156 207.488 41.4736 207.525 41.4082 207.525H39.4482C39.3829 207.525 39.3409 207.488 39.3222 207.413L39.0982 206.041C39.0796 205.939 39.1216 205.887 39.2242 205.887H40.1622L40.4282 204.263H39.4482C39.3829 204.263 39.3409 204.226 39.3222 204.151L38.2722 197.879C38.2629 197.833 38.2722 197.795 38.3002 197.767C38.3282 197.739 38.3609 197.725 38.3982 197.725H39.7702C39.8542 197.725 39.8962 197.763 39.8962 197.837L40.6942 202.625L41.4922 197.837C41.5109 197.763 41.5576 197.725 41.6322 197.725H42.9902C43.0369 197.725 43.0742 197.739 43.1022 197.767C43.1302 197.795 43.1396 197.833 43.1302 197.879Z" fill="#15D1D9"/>
<path d="M85.8516 223.561C85.8516 223.561 87.2823 225.775 88.609 225.762C90.0845 225.747 90.8147 223.01 90.8147 223.01" stroke="black" stroke-width="0.5"/>
<path d="M421.672 70.3086L425.052 104.027L439.005 107.468L425.015 112.407L418.333 144.229L415.734 112.319L400.534 107.484L415.771 103.94L421.672 70.3086Z" fill="#6BF0F6"/>
<path d="M412.932 180.574L412.288 194.899L417.903 198.022L412.342 198.531L406.905 221.686L408.044 197.525L402.43 194.403L408.85 194.095L412.932 180.574Z" fill="#6BF0F6"/>
<path d="M379.225 11.124L383.705 29.7832L391.76 30.9556L384.03 34.1754L385.083 66.336L379.22 34.9718L370.692 33.3927L378.422 30.1729L379.225 11.124Z" fill="#6BF0F6"/>
</svg>
