<?xml version="1.0" encoding="utf-8"?>
<!-- Generator: Adobe Illustrator 25.2.3, SVG Export Plug-In . SVG Version: 6.00 Build 0)  -->
<svg version="1.1" id="Layer_1" xmlns="http://www.w3.org/2000/svg" xmlns:xlink="http://www.w3.org/1999/xlink" x="0px" y="0px"
	 viewBox="0 0 733 564.3" style="enable-background:new 0 0 733 564.3;" xml:space="preserve">
<style type="text/css">
	.st0{fill:#F0F0F0;}
	.st1{fill:#E3DFDF;}
	.st2{fill:#474747;}
	.st3{fill:#15D1D9;}
	.st4{fill:#29EBF3;}
	.st5{fill:#02B4BE;}
	.st6{fill:#99E4E8;}
	.st7{fill:none;stroke:#02B4BE;}
	.st8{fill:#040404;}
	.st9{fill:#2F3E53;}
	.st10{fill:#1A2536;}
	.st11{fill:#FF7B00;}
	.st12{fill:#FF9B58;}
	.st13{fill:#FF8989;}
	.st14{fill:none;stroke:#000000;stroke-width:0.5;stroke-linecap:round;}
	.st15{fill:#FF0080;}
	.st16{fill:none;stroke:#000000;}
	.st17{fill:#FF0004;}
	.st18{fill:#FFFB00;}
	.st19{fill:none;stroke:#DDDDDD;stroke-width:2;}
	.st20{fill:none;stroke:#5500FF;stroke-width:5;}
	.st21{fill:#DDDDDD;}
	.st22{fill:#5500FF;}
	.st23{fill:#DA8759;}
	.st24{fill:#F79F6F;}
	.st25{fill:#FFC86E;}
	.st26{fill:#78AAD9;}
	.st27{fill:#FFC86F;}
	.st28{fill:#FFA878;}
	.st29{fill:#FFBE53;}
	.st30{fill:#222222;}
	.st31{fill:#9D9D9D;}
	.st32{fill:#F6DDBB;}
	.st33{fill:#FFFFFF;}
	.st34{fill:#FF0000;}
	.st35{fill:none;stroke:#000000;stroke-linecap:round;}
	.st36{fill:none;stroke:#222222;}
	.st37{fill:#7D7D7D;}
	.st38{fill:#FFF4E5;}
	.st39{fill:none;stroke:#DA8759;}
	.st40{fill:#FFFFFF;stroke:#FFFFFF;}
	.st41{fill:none;stroke:#000000;stroke-width:0.5;}
	.st42{fill:#6BF0F6;}
</style>
<path class="st0" d="M671.3,409.8c0,106-96.7,84.3-296.1,84.3S0.6,499.1,0.6,393.2c0-106-20.4-292.3,179-292.3
	C379,100.8,671.3,303.9,671.3,409.8z"/>
<path class="st1" d="M81.4,506.2h597.8l26.9,58.1H26.2L81.4,506.2z"/>
<rect x="164.2" y="459.7" class="st2" width="23.3" height="34.9"/>
<rect x="515.7" y="459.7" class="st2" width="23.3" height="34.9"/>
<path class="st3" d="M171.4,376.9h350.3c11.1,0,20.2,9.1,20.2,20.2v51.1c0,11.1-9.1,20.2-20.2,20.2H171.4
	c-11.1,0-20.2-9.1-20.2-20.2v-51.1C151.1,386,160.1,376.9,171.4,376.9z"/>
<path class="st3" d="M184.4,214.1h337.3c11.1,0,20.2,9.1,20.2,20.2v141.1c0,11.1-9.1,20.2-20.2,20.2H184.4
	c-11.1,0-20.2-9.1-20.2-20.2V234.4C164.2,223.2,173.2,214.1,184.4,214.1z"/>
<path class="st4" d="M184.4,355.1h337.3c11.1,0,20.2,9.1,20.2,20.2v0.2c0,11.1-9.1,20.2-20.2,20.2H184.4c-11.1,0-20.2-9.1-20.2-20.2
	v-0.2C164.2,364.2,173.2,355.1,184.4,355.1z"/>
<path class="st4" d="M148.2,451h430c4.8,0,8.8,3.9,8.8,8.8l0,0c0,4.8-3.9,8.8-8.8,8.8h-430c-4.8,0-8.8-3.9-8.8-8.8l0,0
	C139.4,454.9,143.4,451,148.2,451z"/>
<path class="st5" d="M164.2,299.8v148.4c0,11.1-9.1,20.2-20.2,20.2h-35.1c-11.1,0-20.2-9.1-20.2-20.2V299.8
	c0-11.1,9.1-20.2,20.2-20.2h35.1C155.1,279.6,164.2,288.6,164.2,299.8z"/>
<path class="st6" d="M88.7,304.1c0.3-1.2,2.1-1.2,2.5,0.1L116.5,424c1.6,7.6,7.4,13.6,15.1,15.5l21.3,5.2c6.1,1.5,9.6,7.9,7.4,13.8
	c-1.1,3.1-3.6,5.5-6.9,6.4l-8.8,2.7c-1.9,0.6-3.9,0.9-5.8,0.9h-29.9c-11.1,0-20.2-9.1-20.2-20.2V304.4
	C88.6,304.3,88.6,304.2,88.7,304.1z"/>
<path class="st5" d="M614.6,299.8v148.4c0,11.1-9.1,20.2-20.2,20.2h-35.1c-11.1,0-20.2-9.1-20.2-20.2V299.8
	c0-11.1,9.1-20.2,20.2-20.2h35.1C605.5,279.6,614.6,288.6,614.6,299.8z"/>
<path class="st6" d="M614.5,306.2c-0.3-1.2-2.1-1.2-2.5,0.1l-25.3,119.8c-1.6,7.6-7.4,13.6-15.1,15.5l-21.3,5.2
	c-6.1,1.5-9.6,7.9-7.4,13.8c1.1,3.1,3.6,5.5,6.9,6.4l8.8,2.7c1.9,0.6,3.9,0.9,5.8,0.9h29.8c11.1,0,20.2-9.1,20.2-20.2V306.6
	C614.6,306.5,614.6,306.4,614.5,306.2z"/>
<line class="st7" x1="346.7" y1="355.1" x2="346.7" y2="214.1"/>
<line class="st7" x1="233.8" y1="251.5" x2="220.3" y2="265"/>
<line class="st7" x1="233.8" y1="265" x2="220.3" y2="251.5"/>
<line class="st7" x1="293.5" y1="251.5" x2="280" y2="265"/>
<line class="st7" x1="293.5" y1="265" x2="280" y2="251.5"/>
<line class="st7" x1="353.1" y1="251.5" x2="339.6" y2="265"/>
<line class="st7" x1="353.1" y1="265" x2="339.6" y2="251.5"/>
<line class="st7" x1="412.8" y1="251.5" x2="399.3" y2="265"/>
<line class="st7" x1="412.8" y1="265" x2="399.3" y2="251.5"/>
<line class="st7" x1="233.8" y1="322.7" x2="220.3" y2="336.2"/>
<line class="st7" x1="233.8" y1="336.2" x2="220.3" y2="322.7"/>
<line class="st7" x1="293.5" y1="322.7" x2="280" y2="336.2"/>
<line class="st7" x1="293.5" y1="336.2" x2="280" y2="322.7"/>
<line class="st7" x1="353.1" y1="322.7" x2="339.6" y2="336.2"/>
<line class="st7" x1="353.1" y1="336.2" x2="339.6" y2="322.7"/>
<line class="st7" x1="412.8" y1="322.7" x2="399.2" y2="336.2"/>
<line class="st7" x1="412.8" y1="336.2" x2="399.2" y2="322.7"/>
<line class="st7" x1="278.9" y1="288.1" x2="261.5" y2="305.6"/>
<line class="st7" x1="279.1" y1="305.6" x2="261.7" y2="288.1"/>
<line class="st7" x1="432.9" y1="289.6" x2="415.4" y2="307"/>
<line class="st7" x1="433.1" y1="307" x2="415.6" y2="289.6"/>
<path class="st8" d="M326.9,509.9c4.7-11.8-49.5,0-47.8-8.1c-6.7,13.5-50.5-2.4-47.7,8.1c0,4.5,21.4,6.4,47.7,6.4
	C294.4,516.4,326.9,514.4,326.9,509.9z"/>
<ellipse class="st9" cx="279.1" cy="507.5" rx="47.7" ry="5.7"/>
<path class="st10" d="M275.6,347.9h5.6c1.2,0,2.2,1,2.2,2.2v153.8c0,1.2-1,2.2-2.2,2.2h-5.6c-1.2,0-2.2-1-2.2-2.2V350.1
	C273.4,348.9,274.4,347.9,275.6,347.9z"/>
<path class="st8" d="M380.9,347.9c10.1-25.4-106,0-102.4-17.4c-14.5,29-108.2-5.1-102.4,17.4c0,9.7,45.9,13.8,102.4,13.8
	C311.2,361.6,380.9,357.4,380.9,347.9z"/>
<ellipse class="st9" cx="278.4" cy="342.8" rx="102.4" ry="12.4"/>
<path class="st11" d="M102.7,496.7c-0.4,0-0.8,0-1.1,0.2l-37.1,18.1c-1.5,0.7-1.7,2.7-0.4,3.7l36,30.9c2.1,1.8,4.9-1,3.3-3.1
	l-17.9-21.8c-1.1-1.3-0.3-3.4,1.3-3.6l41.6-6.9c0.2,0,0.3-0.1,0.6-0.1l22-9.3c2.1-0.9,1.7-4.2-0.7-4.3L102.7,496.7z"/>
<path class="st11" d="M168.7,368.8c-0.7-2-3.6-2-4.3,0l-10.9,31.4c-0.6,1.5,0.6,2.9,2.1,3l21.4,0.2c1.6,0,2.6-1.5,2.1-2.9
	L168.7,368.8z"/>
<path class="st11" d="M124.9,381.5c-1.7-1.2-3.9,0.2-3.5,2.2l5.5,27.7c0.3,1.6,2.1,2.4,3.4,1.5l17.4-11.1c1.3-0.9,1.3-2.8,0.1-3.7
	L124.9,381.5z"/>
<path class="st12" d="M103,506c11.1,32.2,33.6,21.9,59.7,21.9s43.1-20.2,44.4-43.1c0.2-3.3-21.1-65.8-47.2-65.8
	C133.9,419,91.9,473.8,103,506z"/>
<path class="st12" d="M108.5,416.1c0,20,19.6,36.3,43.6,36.3s55.9-24.7,47.9-49.4c-16.8-28.3-5.1,5.8-33.4-14.5
	C112.1,390.7,140.5,425.6,108.5,416.1z"/>
<ellipse transform="matrix(0.9477 -0.3192 0.3192 0.9477 -123.4123 68.6246)" cx="147.7" cy="410.8" rx="2.1" ry="2.9"/>
<ellipse cx="165.9" cy="407.3" rx="2.1" ry="2.9"/>
<path class="st13" d="M164.9,424.8c0,2.4-2.4,5.1-4.4,5.1c-2,0-4.4-2.1-5.1-4.4c2.9-1.5,1.6-4.4,3.6-4.4
	C161,421.1,162.7,424.1,164.9,424.8z"/>
<path class="st14" d="M159.4,420.5c0,0,4.3,4.8,8,5.1c5.2,0.2,10.1-8.8,10.1-8.8"/>
<path class="st14" d="M141.1,423.9c0,0,4.3,4.8,8,5.1c5.2,0.3,10.1-8.8,10.1-8.8"/>
<path class="st15" d="M154.4,417.9c0.2,1.5,1.9,3.8,4.2,3.5c2.4-0.3,4.4-3.1,4.2-4.6c-0.2-1.5-2.1-0.1-4.4,0.2
	S154.3,416.5,154.4,417.9z"/>
<line class="st16" x1="188.6" y1="412.3" x2="222" y2="402.2"/>
<line class="st16" x1="192.1" y1="417.2" x2="216" y2="416.7"/>
<line class="st16" x1="189.2" y1="419.5" x2="221.5" y2="432.5"/>
<line class="st16" x1="131.9" y1="420.6" x2="96.9" y2="420.2"/>
<line class="st16" x1="129.9" y1="426.3" x2="106.7" y2="432.4"/>
<line class="st16" x1="133.4" y1="427.8" x2="105.8" y2="449.2"/>
<path class="st17" d="M183.8,436.4l-56.6,3c-2.4,0.1-4.3,2.1-4.2,4.6l0,0c0.1,2.4,2.1,4.3,4.6,4.2l56.6-3c2.4-0.1,4.3-2.1,4.2-4.6
	l0,0C188.3,438.2,186.1,436.2,183.8,436.4z"/>
<circle class="st18" cx="157.9" cy="451" r="8.8"/>
<rect x="154.9" y="436.5" transform="matrix(0.9995 -3.097569e-02 3.097569e-02 0.9995 -13.5575 5.0758)" width="4.4" height="7.3"/>
<ellipse transform="matrix(0.9884 -0.1522 0.1522 0.9884 -77.0848 33.9115)" class="st11" cx="183" cy="520.5" rx="13" ry="8"/>
<ellipse transform="matrix(0.115 -0.9934 0.9934 0.115 -394.9618 600.5327)" class="st11" cx="139.6" cy="521.9" rx="8" ry="13"/>
<path class="st19" d="M360.7,317.3c0,2.4-1.3,4.6-3.8,6.3c-2.5,1.7-5.8,2.8-9.7,2.8s-7.2-1.1-9.7-2.8c-2.5-1.7-3.8-3.9-3.8-6.3
	c0-2.4,1.3-4.6,3.8-6.3c2.4-1.7,5.8-2.8,9.7-2.8s7.2,1.1,9.7,2.8C359.3,312.8,360.7,315,360.7,317.3z"/>
<path class="st20" d="M363.2,334.7l16,5.1L396,371"/>
<path class="st21" d="M365.6,315.6l1.1,24.5c0,0.7-0.4,1.1-1.1,1.1l-33.5,1.6c-0.7,0-1.1-0.4-1.1-1.1l-1.1-24.5
	c0-0.7,0.4-1.1,1.1-1.1l33.5-1.6C365,314.5,365.6,314.9,365.6,315.6z"/>
<path class="st22" d="M431.5,368.2c8.8,10.9-1.2,11.6-14.5,11.6c-13.3,0-29-0.7-29-5.1s5.8-17.4,16.8-8
	C417.9,366.7,413.4,368.2,431.5,368.2z"/>
<polygon class="st23" points="635.6,191.4 599.5,193.6 600.9,221.3 637.1,219.2 "/>
<path class="st24" d="M629.2,169.3c-0.9,7.3,3.1,13.8,9.2,14.7s11.7-4.3,12.6-11.6c0.9-7.3-3.1-13.8-9.2-14.7
	C635.7,156.8,630.1,162,629.2,169.3z"/>
<ellipse transform="matrix(0.9925 -0.1224 0.1224 0.9925 -16.5634 73.6385)" class="st24" cx="591.1" cy="171.6" rx="8.1" ry="13.3"/>
<path class="st25" d="M586.4,214c-3.8-5.7-11.5-7.2-17.1-3l-85.6,62c-6.1,4.4-7.6,13-3.6,19.3c4,6.2,12.1,7.6,18.1,3.3l84.9-63
	C588.9,228.3,590.3,220,586.4,214z"/>
<path class="st26" d="M690.9,309.4l-88.2-6.5l-16.9,5.6L612.3,539l23.5,2.1l7.4-158.1l18.4,158.1L685,539L690.9,309.4z"/>
<path class="st27" d="M673.8,208.2c0,0-82.9-2.2-100,0c-17.1,2.2,11.9,100.6,11.9,100.6l105.3,1.3L673.8,208.2z"/>
<path class="st28" d="M590,176.1c3.5,21.7,10.6,24.4,25.2,31.2c19.1-5.1,25.9-16.3,29.8-42.2c0-23.1-1.8-29.5-18.7-26
	C611.2,131.4,586.5,119.6,590,176.1z"/>
<path class="st1" d="M648.7,136.5c-0.6-1.7-1.9-3-3.7-3.5l-22.8-7.1c-0.9-0.2-1.8-0.3-2.7-0.1l-24.3,4.8c-1.5,0.3-2.8,1.1-3.6,2.5
	l-4.8,7.4c-2.1,3.4-0.3,7.8,3.6,8.5l26.7,5.4c0.7,0.1,1.2,0.1,1.9,0l27.6-3.9c3.5-0.4,5.7-4,4.5-7.4L648.7,136.5z"/>
<path class="st26" d="M648.8,147.3H585c-2.1,0-3.8,1.7-3.8,3.8l0,0c0,2.1,1.7,3.8,3.8,3.8h63.8c2.1,0,3.8-1.7,3.8-3.8l0,0
	C652.6,149.1,650.9,147.3,648.8,147.3z"/>
<path class="st26" d="M605,243.3l41.6-1.7l34.3,69.2h-90L605,243.3z"/>
<path class="st26" d="M655.7,207.6l-13.5-0.3v104.8h13.5V207.6z"/>
<path class="st26" d="M599.4,207.3h-12.9l16.3,104.5l12.5-2.2L599.4,207.3z"/>
<path class="st29" d="M680.7,213.7c-5.3-8.1-16.5-8.1-22.2,0l-26.1,37.6c-2.6,3.8-6.3,6.6-10.3,8.2l-40.5,15.6
	c-7.3,2.8-10.1,12.4-5.5,18.8c2.9,4,8,5.7,12.6,4l48.9-17.2c4-1.5,7.8-4.2,10.5-7.6L680,231C683.7,225.8,684.1,218.9,680.7,213.7z"
	/>
<polygon class="st30" points="560.4,270.8 500.4,292.2 508,316.5 567.9,295.1 "/>
<path class="st31" d="M572.1,263.2c-17.5-18.6-59.9,21.4-59.9,21.4l10.1,32.5l59.9-21.4C582.2,295.8,581,272.6,572.1,263.2z"/>
<path class="st31" d="M553.5,293.8l18.8,22.3l13.9-4.4l-9.3-27.1L553.5,293.8z"/>
<ellipse transform="matrix(0.8614 -0.508 0.508 0.8614 -66.9699 333.8495)" class="st32" cx="578.2" cy="289.6" rx="20.5" ry="13.2"/>
<ellipse transform="matrix(0.8869 -0.462 0.462 0.8869 -77.0124 257.2595)" class="st32" cx="486.8" cy="285.9" rx="19.9" ry="13.9"/>
<ellipse cx="606" cy="165.7" rx="2" ry="3.8"/>
<ellipse cx="627.7" cy="165.7" rx="2" ry="3.8"/>
<path class="st33" d="M606,185.6c0,1.2,4.5,4.9,9.3,4.9s9.8-2.7,9.8-3.8s-4.9-1.1-9.8-1.1S606,184.3,606,185.6z"/>
<path class="st34" d="M606,186.7c0,1.2,4.9,9.4,9.9,9.4c4.8,0,8.3-7.1,8.3-8.3c0-1.2-4.5,2.2-9.3,2.2C610,190,606,185.5,606,186.7z"
	/>
<path class="st16" d="M625.7,185.8c0,0-5.4,10.5-10,10.7c-5.1,0.2-10.5-11.5-10.5-11.5"/>
<path class="st35" d="M625.7,186.1L605,185"/>
<line class="st16" x1="610.2" y1="157.9" x2="599" y2="157.9"/>
<line class="st16" x1="633.4" y1="157.9" x2="622.2" y2="157.9"/>
<line class="st36" x1="537.8" y1="296.3" x2="548.9" y2="308.3"/>
<line class="st36" x1="530.2" y1="298.5" x2="541.4" y2="310.5"/>
<line class="st36" x1="522.6" y1="300.7" x2="533.8" y2="312.7"/>
<ellipse class="st25" cx="562" cy="275.1" rx="1.6" ry="1.7"/>
<ellipse class="st37" cx="567.7" cy="273.5" rx="2" ry="2.2"/>
<path class="st38" d="M659.9,549.6c0,8.2,22.3,6.1,40.9,6.1c18.6,0,18.1-6.2,18.1-14.4c-48.7-5.5-23.8-7.2-42.5-7.2
	C657.9,534.1,659.9,541.3,659.9,549.6z"/>
<path class="st38" d="M637,549.9c0,8.2-22.3,6.1-40.9,6.1c-18.6,0-18.1-6.2-18.1-14.4c48.7-5.5,23.8-7.2,42.5-7.2
	C639,534.5,637,541.7,637,549.9z"/>
<line class="st39" x1="615.8" y1="168.1" x2="611.8" y2="177.4"/>
<line class="st39" x1="616.5" y1="178.2" x2="611.3" y2="176.7"/>
<path class="st33" d="M150.7,423.1l-77-12.8l9.2-15.1L150.7,423.1z"/>
<path class="st40" d="M98.3,389.9c0,6.5-5.1,12.5-13.5,17c-8.4,4.4-20.1,7.2-33.2,7.2c-12.9,0-24.6-2.7-33.2-7.2
	C10,402.5,5,396.4,5,389.9c0-6.5,5.1-12.5,13.5-17c8.4-4.4,20.1-7.2,33.2-7.2c12.9,0,24.6,2.7,33.2,7.2
	C93.2,377.4,98.3,383.5,98.3,389.9z"/>
<path class="st3" d="M41.4,396.5c0,0.1-0.1,0.2-0.2,0.2h-2.2c-0.1,0-0.2-0.1-0.2-0.2l-0.7-8.3l-1.9,8.3c0,0.1-0.1,0.1-0.2,0.1h-2.2
	c-0.1,0-0.2,0-0.2-0.1l-1.9-8.3l-0.7,8.3c0,0.1-0.1,0.2-0.2,0.2h-2.1c-0.1,0-0.2-0.1-0.2-0.2l1.2-15.3c0-0.1,0.1-0.2,0.2-0.2h2.2
	c0.1,0,0.2,0,0.2,0.1l2.6,11l2.6-11c0-0.1,0.1-0.1,0.2-0.1h2.2c0.1,0,0.2,0.1,0.2,0.2L41.4,396.5z M50.3,381c0.1,0,0.2,0.1,0.2,0.2
	v15.3c0,0.1-0.1,0.2-0.2,0.2H48c-0.1,0-0.2-0.1-0.2-0.2v-6.4h-0.7l-1.9,6.4c0,0.1-0.1,0.1-0.2,0.1h-2.1c-0.1,0-0.1,0-0.2-0.1
	c0-0.1,0-0.1,0-0.2l1.9-6.4c-0.3-0.1-0.6-0.2-0.7-0.3c-0.3-0.2-0.7-0.6-0.9-0.9c-0.2-0.4-0.3-0.9-0.3-1.3v-3.9c0-0.3,0.1-0.7,0.2-1
	c0.1-0.3,0.3-0.6,0.6-0.9c0.2-0.2,0.6-0.4,0.8-0.6c0.3-0.1,0.7-0.2,1-0.2h5.1C50.3,380.7,50.3,381,50.3,381z M47.8,387.6v-3.9h-2.4
	c-0.1,0-0.2,0.1-0.2,0.2v3.5c0,0.1,0.1,0.2,0.2,0.2L47.8,387.6L47.8,387.6z M59.8,381c0.1,0,0.2,0.1,0.2,0.2v15.3
	c0,0.1-0.1,0.2-0.2,0.2h-2.2c-0.1,0-0.2-0.1-0.2-0.2v-6.4h-0.7l-1.9,6.4c0,0.1-0.1,0.1-0.2,0.1h-2.1c-0.1,0-0.1,0-0.2-0.1
	c0-0.1,0-0.1,0-0.2l1.9-6.4c-0.3-0.1-0.6-0.2-0.7-0.3c-0.3-0.2-0.7-0.6-0.9-0.9c-0.2-0.4-0.3-0.9-0.3-1.3v-3.9c0-0.3,0.1-0.7,0.2-1
	c0.1-0.3,0.3-0.6,0.6-0.9c0.2-0.2,0.6-0.4,0.8-0.6c0.3-0.1,0.7-0.2,1-0.2h5.1C59.8,380.7,59.8,381,59.8,381z M57.5,387.6v-3.9h-2.4
	c-0.1,0-0.2,0.1-0.2,0.2v3.5c0,0.1,0.1,0.2,0.2,0.2L57.5,387.6L57.5,387.6z M69.5,381c0.1,0,0.2,0.1,0.2,0.2v15.3
	c0,0.1-0.1,0.2-0.2,0.2h-2.2c-0.1,0-0.2-0.1-0.2-0.2v-6.4h-0.7l-1.9,6.4c0,0.1-0.1,0.1-0.2,0.1h-2.1c-0.1,0-0.1,0-0.2-0.1
	c0-0.1,0-0.1,0-0.2l1.9-6.4c-0.3-0.1-0.6-0.2-0.7-0.3c-0.3-0.2-0.7-0.6-0.9-0.9c-0.2-0.4-0.3-0.9-0.3-1.3v-3.9c0-0.3,0.1-0.7,0.2-1
	c0.1-0.3,0.3-0.6,0.6-0.9c0.2-0.2,0.6-0.4,0.8-0.6c0.3-0.1,0.7-0.2,1-0.2h5.1C69.5,380.7,69.5,381,69.5,381z M67.1,387.6v-3.9h-2.4
	c-0.1,0-0.2,0.1-0.2,0.2v3.5c0,0.1,0.1,0.2,0.2,0.2L67.1,387.6L67.1,387.6z M78.7,381.3l-2.6,15.3c0,0.1-0.1,0.2-0.2,0.2h-3.1
	c-0.1,0-0.2-0.1-0.2-0.2l-0.3-2.2c0-0.1,0-0.2,0.2-0.2h1.5l0.4-2.6h-1.6c-0.1,0-0.2-0.1-0.2-0.2l-1.7-10.1c0-0.1,0-0.1,0-0.2
	c0-0.1,0.1-0.1,0.1-0.1h2.2c0.1,0,0.2,0.1,0.2,0.2l1.2,7.6l1.2-7.6c0-0.1,0.1-0.2,0.2-0.2h2.1c0.1,0,0.1,0,0.2,0.1
	C78.6,381,78.7,381.3,78.7,381.3z"/>
<path class="st41" d="M155.4,426c0,0,2.6,3.9,5.1,3.9c2.8,0,4.4-5.1,4.4-5.1"/>
<path class="st42" d="M538.6,80.4l5.1,54.5l21.7,5.8l-21.7,7.9l-10.1,51.2l-4.3-51.2l-23.1-7.9l23.1-5.8L538.6,80.4z"/>
<path class="st42" d="M723.8,413.9L723,440l10,5.1l-10.8,1.2l-9.7,41.8l2.8-43.4l-10.5-6.2l11.2-0.2L723.8,413.9z"/>
<path class="st42" d="M686.4,118.9l1.8,27.4l13.9,4.6l-14.3,2.2l-8.5,44.8l-0.8-45.8l-14.7-5.6l15.1-1.1L686.4,118.9z"/>
<g>
	<path class="st3" d="M90.9,38.7v4.2c0,0.3-0.1,0.4-0.4,0.4H76.2c-0.3,0-0.4-0.1-0.4-0.4V13.6c0-0.3,0.1-0.4,0.4-0.4h14.2
		c0.3,0,0.4,0.1,0.4,0.4L89.7,18c-0.1,0.2-0.2,0.3-0.4,0.3h-8.5v7.5h5.9c0.3,0,0.4,0.1,0.4,0.4v4.2c0,0.3-0.1,0.4-0.4,0.4h-5.9v7.5
		h9.6C90.8,38.3,90.9,38.4,90.9,38.7z"/>
	<path class="st3" d="M108.9,13.6v24.7c0,0.7-0.1,1.3-0.4,2c-0.3,0.6-0.6,1.2-1.1,1.6c-0.5,0.5-1,0.8-1.6,1.1
		c-0.6,0.3-1.3,0.4-2,0.4h-5c-0.7,0-1.3-0.1-2-0.4c-0.6-0.3-1.2-0.6-1.6-1.1c-0.5-0.5-0.8-1-1.1-1.6c-0.3-0.6-0.4-1.3-0.4-2V13.6
		c0-0.3,0.1-0.4,0.4-0.4h4.2c0.3,0,0.4,0.1,0.4,0.4v24.3c0,0.3,0.1,0.4,0.4,0.4h4.2c0.3,0,0.4-0.1,0.4-0.4V13.6
		c0-0.3,0.1-0.4,0.4-0.4h4.2C108.8,13.2,108.9,13.4,108.9,13.6z"/>
	<path class="st3" d="M111.8,13.6c0-0.3,0.1-0.4,0.4-0.4h9.6c0.7,0,1.3,0.1,2,0.4c0.6,0.3,1.2,0.6,1.6,1.1c0.5,0.5,0.8,1,1.1,1.6
		c0.3,0.6,0.4,1.3,0.4,2v7.5c0,1.2-0.4,2.2-1.1,3.1c-0.7,0.9-1.6,1.5-2.7,1.8l3.6,12.2c0.1,0.1,0,0.3,0,0.4
		c-0.1,0.1-0.2,0.2-0.3,0.2h-4.2c-0.1,0-0.3-0.1-0.4-0.3l-3.7-12.3h-1.2v12.2c0,0.3-0.1,0.4-0.4,0.4h-4.2c-0.3,0-0.4-0.1-0.4-0.4
		V13.6z M116.8,18.3v7.5h4.6c0.3,0,0.4-0.1,0.4-0.4v-6.7c0-0.3-0.1-0.4-0.4-0.4H116.8z"/>
	<path class="st3" d="M139.8,13.2c0.7,0,1.3,0.1,2,0.4c0.6,0.3,1.2,0.6,1.6,1.1c0.5,0.5,0.8,1,1.1,1.6c0.3,0.6,0.4,1.3,0.4,2v20
		c0,0.7-0.1,1.3-0.4,2c-0.3,0.6-0.6,1.2-1.1,1.6c-0.5,0.5-1,0.8-1.6,1.1c-0.6,0.3-1.3,0.4-2,0.4h-5c-0.7,0-1.3-0.1-2-0.4
		c-0.6-0.3-1.2-0.6-1.6-1.1c-0.5-0.5-0.8-1-1.1-1.6c-0.3-0.6-0.4-1.3-0.4-2v-20c0-0.7,0.1-1.3,0.4-2c0.3-0.6,0.6-1.2,1.1-1.6
		c0.5-0.5,1-0.8,1.6-1.1c0.6-0.3,1.3-0.4,2-0.4H139.8z M139.4,38.3c0.3,0,0.4-0.1,0.4-0.4V18.6c0-0.3-0.1-0.4-0.4-0.4h-4.2
		c-0.3,0-0.4,0.1-0.4,0.4v19.3c0,0.3,0.1,0.4,0.4,0.4H139.4z"/>
	<path class="st3" d="M164.9,13.2c0.7,0,1.3,0.1,2,0.4c0.6,0.3,1.2,0.6,1.6,1.1c0.5,0.5,0.8,1,1.1,1.6c0.3,0.6,0.4,1.3,0.4,2v20
		c0,0.5-0.1,1-0.2,1.5c0,0.1-0.1,0.2-0.1,0.2c0,0.1-0.1,0.2-0.1,0.2c-0.1,0.3-0.3,0.6-0.5,0.9c-0.2,0.3-0.4,0.5-0.6,0.7
		c-0.5,0.5-1.1,0.9-1.6,1.1c-0.5,0.2-1.2,0.4-1.9,0.4h-9.6c-0.3,0-0.4-0.1-0.4-0.4V13.6c0-0.3,0.1-0.4,0.4-0.4h4.5h0.1H164.9z
		 M164.9,18.6c0-0.3-0.1-0.4-0.4-0.4h-4.6v20h4.6c0.3,0,0.4-0.1,0.4-0.4V18.6z"/>
	<path class="st3" d="M172.9,13.6c0-0.3,0.1-0.4,0.4-0.4h9.6c0.7,0,1.3,0.1,2,0.4c0.6,0.3,1.2,0.6,1.6,1.1c0.5,0.5,0.8,1,1.1,1.6
		c0.3,0.6,0.4,1.3,0.4,2v7.5c0,1.2-0.4,2.2-1.1,3.1c-0.7,0.9-1.6,1.5-2.7,1.8l3.6,12.2c0.1,0.1,0,0.3,0,0.4
		c-0.1,0.1-0.2,0.2-0.3,0.2h-4.2c-0.1,0-0.3-0.1-0.4-0.3l-3.7-12.3h-1.2v12.2c0,0.3-0.1,0.4-0.4,0.4h-4.2c-0.3,0-0.4-0.1-0.4-0.4
		V13.6z M177.9,18.3v7.5h4.6c0.3,0,0.4-0.1,0.4-0.4v-6.7c0-0.3-0.1-0.4-0.4-0.4H177.9z"/>
	<path class="st3" d="M190.9,13.7c-0.1-0.1,0-0.3,0-0.4c0.1-0.1,0.2-0.2,0.3-0.2h4.1c0.2,0,0.3,0.1,0.4,0.3l2.5,9.3l2.4-9.3
		c0.1-0.2,0.2-0.3,0.4-0.3h4.2c0.1,0,0.3,0.1,0.3,0.2c0.1,0.1,0.1,0.2,0,0.4l-4.8,14.5v14.7c0,0.3-0.1,0.4-0.4,0.4h-4.2
		c-0.3,0-0.4-0.1-0.4-0.4V28.3L190.9,13.7z"/>
	<path class="st3" d="M225.7,20.5v-1.8c0-0.3-0.1-0.4-0.4-0.4h-4.2c-0.3,0-0.4,0.1-0.4,0.4v19.3c0,0.3,0.1,0.4,0.4,0.4h4.2
		c0.3,0,0.4-0.1,0.4-0.4v-3c0-0.3,0.1-0.4,0.4-0.4h4.2c0.3,0,0.4,0.1,0.4,0.4v3.4c0,0.7-0.1,1.3-0.4,2c-0.3,0.6-0.6,1.2-1.1,1.6
		c-0.5,0.5-1,0.8-1.6,1.1c-0.6,0.3-1.3,0.4-2,0.4h-5c-0.7,0-1.3-0.1-2-0.4c-0.6-0.3-1.2-0.6-1.6-1.1c-0.5-0.5-0.8-1-1.1-1.6
		c-0.3-0.6-0.4-1.3-0.4-2v-20c0-0.7,0.1-1.3,0.4-2c0.3-0.6,0.6-1.2,1.1-1.6c0.5-0.5,1-0.8,1.6-1.1c0.6-0.3,1.3-0.4,2-0.4h5
		c0.7,0,1.3,0.1,2,0.4c0.6,0.3,1.2,0.6,1.6,1.1c0.5,0.5,0.8,1,1.1,1.6c0.3,0.6,0.4,1.3,0.4,2v3.4c0,0.3-0.1,0.4-0.4,0.4l-4.3-1.2
		C225.8,20.8,225.7,20.7,225.7,20.5z"/>
	<path class="st3" d="M245,43c-0.1,0.2-0.2,0.3-0.4,0.3H234c-0.3,0-0.4-0.1-0.4-0.4V13.6c0-0.3,0.1-0.4,0.4-0.4h4.2
		c0.3,0,0.4,0.1,0.4,0.4v24.7h7c0.1,0,0.3,0.1,0.3,0.2c0.1,0.1,0.1,0.2,0.1,0.4L245,43z"/>
	<path class="st3" d="M264.1,38.7v4.2c0,0.3-0.1,0.4-0.4,0.4h-14.2c-0.3,0-0.4-0.1-0.4-0.4V13.6c0-0.3,0.1-0.4,0.4-0.4h14.2
		c0.3,0,0.4,0.1,0.4,0.4l-1.2,4.3c-0.1,0.2-0.2,0.3-0.4,0.3h-8.5v7.5h5.9c0.3,0,0.4,0.1,0.4,0.4v4.2c0,0.3-0.1,0.4-0.4,0.4h-5.9v7.5
		h9.6C264,38.3,264.1,38.4,264.1,38.7z"/>
	<path class="st3" d="M277.6,43.3c-0.1,0-0.1,0-0.2,0c-0.1-0.1-0.2-0.2-0.2-0.3v-4.6h-4.6l-0.3,4.6c0,0.2,0,0.3,0,0.3
		c0,0-0.1,0-0.3,0h-4.2c-0.1,0-0.1,0-0.2,0c-0.1-0.1-0.2-0.2-0.2-0.3l1.4-29c0-0.2,0-0.3,0-0.5c0-0.2,0.1-0.2,0.3-0.2h11.7
		c0.2,0,0.3,0.1,0.3,0.2c0,0.2,0,0.3,0,0.5l1.4,29c0,0.2-0.1,0.3-0.2,0.3c-0.1,0-0.3,0-0.5,0H277.6z M276.2,18.6h-2.8l-0.7,14.9h4.3
		L276.2,18.6z"/>
	<path class="st3" d="M285.3,13.6c0-0.3,0.1-0.4,0.4-0.4h4.3c0.2,0,0.3,0.1,0.4,0.3l4.9,17.2V13.6c0-0.3,0.1-0.4,0.4-0.4h4.2
		c0.3,0,0.4,0.1,0.4,0.4v29.3c0,0.3-0.1,0.4-0.4,0.4h-4.3c-0.1,0-0.3-0.1-0.4-0.3l-4.9-17.2v17.2c0,0.3-0.1,0.4-0.4,0.4h-4.2
		c-0.3,0-0.4-0.1-0.4-0.4V13.6z"/>
	<path class="st3" d="M307.8,13.6v29.3c0,0.3-0.1,0.4-0.4,0.4h-4.2c-0.3,0-0.4-0.1-0.4-0.4V13.6c0-0.3,0.1-0.4,0.4-0.4h4.2
		C307.7,13.2,307.8,13.4,307.8,13.6z"/>
	<path class="st3" d="M311.2,13.6c0-0.3,0.1-0.4,0.4-0.4h4.3c0.2,0,0.3,0.1,0.4,0.3l4.9,17.2V13.6c0-0.3,0.1-0.4,0.4-0.4h4.2
		c0.3,0,0.4,0.1,0.4,0.4v29.3c0,0.3-0.1,0.4-0.4,0.4h-4.3c-0.1,0-0.3-0.1-0.4-0.3l-4.9-17.2v17.2c0,0.3-0.1,0.4-0.4,0.4h-4.2
		c-0.3,0-0.4-0.1-0.4-0.4V13.6z"/>
	<path class="st3" d="M339.2,21.7v-3.1c0-0.3-0.1-0.4-0.4-0.4h-4.2c-0.3,0-0.4,0.1-0.4,0.4v19.3c0,0.3,0.1,0.4,0.4,0.4h4.2
		c0.3,0,0.4-0.1,0.4-0.4v-4.6h-2c-0.1,0-0.3,0-0.3-0.2c-0.1-0.1-0.1-0.2,0-0.4l1-4.2c0.1-0.2,0.2-0.3,0.4-0.3h5.5
		c0.3,0,0.4,0.1,0.4,0.4v9.6c0,0.7-0.1,1.3-0.4,2c-0.3,0.6-0.6,1.2-1.1,1.6c-0.5,0.5-1,0.8-1.6,1.1c-0.6,0.3-1.3,0.4-2,0.4h-5
		c-0.7,0-1.3-0.1-2-0.4c-0.6-0.3-1.2-0.6-1.6-1.1c-0.5-0.5-0.8-1-1.1-1.6c-0.3-0.6-0.4-1.3-0.4-2v-20c0-0.7,0.1-1.3,0.4-2
		c0.3-0.6,0.6-1.2,1.1-1.6c0.5-0.5,1-0.8,1.6-1.1c0.6-0.3,1.3-0.4,2-0.4h5c0.7,0,1.3,0.1,2,0.4c0.6,0.3,1.2,0.6,1.6,1.1
		c0.5,0.5,0.8,1,1.1,1.6c0.3,0.6,0.4,1.3,0.4,2v4.6c0,0.3-0.1,0.4-0.4,0.4l-4.3-1.2C339.3,22,339.2,21.9,339.2,21.7z"/>
	<path d="M86.7,66.1v-1.8c0-0.3-0.1-0.4-0.4-0.4h-4.2c-0.3,0-0.4,0.1-0.4,0.4v19.3c0,0.3,0.1,0.4,0.4,0.4h4.2c0.3,0,0.4-0.1,0.4-0.4
		v-3c0-0.3,0.1-0.4,0.4-0.4h4.2c0.3,0,0.4,0.1,0.4,0.4v3.4c0,0.7-0.1,1.3-0.4,2c-0.3,0.6-0.6,1.2-1.1,1.6c-0.5,0.5-1,0.8-1.6,1.1
		c-0.6,0.3-1.3,0.4-2,0.4h-5c-0.7,0-1.3-0.1-2-0.4c-0.6-0.3-1.2-0.6-1.6-1.1c-0.5-0.5-0.8-1-1.1-1.6c-0.3-0.6-0.4-1.3-0.4-2v-20
		c0-0.7,0.1-1.3,0.4-2c0.3-0.6,0.6-1.2,1.1-1.6c0.5-0.5,1-0.8,1.6-1.1c0.6-0.3,1.3-0.4,2-0.4h5c0.7,0,1.3,0.1,2,0.4
		c0.6,0.3,1.2,0.6,1.6,1.1c0.5,0.5,0.8,1,1.1,1.6c0.3,0.6,0.4,1.3,0.4,2v3.4c0,0.3-0.1,0.4-0.4,0.4L87,66.4
		C86.8,66.4,86.7,66.3,86.7,66.1z"/>
	<path d="M110.6,59.2v29.3c0,0.3-0.1,0.4-0.4,0.4H106c-0.3,0-0.4-0.1-0.4-0.4V63.9h-5v24.7c0,0.3-0.1,0.4-0.4,0.4h-4.2
		c-0.3,0-0.4-0.1-0.4-0.4V59.2c0-0.3,0.1-0.4,0.4-0.4h14.3C110.4,58.8,110.6,59,110.6,59.2z"/>
	<path d="M123.6,88.9c-0.1,0-0.1,0-0.2,0c-0.1-0.1-0.2-0.2-0.2-0.3V84h-4.6l-0.3,4.6c0,0.2,0,0.3,0,0.3c0,0-0.1,0-0.3,0h-4.2
		c-0.1,0-0.1,0-0.2,0c-0.1-0.1-0.2-0.2-0.2-0.3l1.4-29c0-0.2,0-0.3,0-0.5c0-0.2,0.1-0.2,0.3-0.2h11.7c0.2,0,0.3,0.1,0.3,0.2
		c0,0.2,0,0.3,0,0.5l1.4,29c0,0.2-0.1,0.3-0.2,0.3c-0.1,0-0.3,0-0.5,0H123.6z M122.2,64.2h-2.8L118.6,79h4.3L122.2,64.2z"/>
	<path d="M141.3,66.1v-1.8c0-0.3-0.1-0.4-0.4-0.4h-4.2c-0.3,0-0.4,0.1-0.4,0.4v19.3c0,0.3,0.1,0.4,0.4,0.4h4.2
		c0.3,0,0.4-0.1,0.4-0.4v-3c0-0.3,0.1-0.4,0.4-0.4h4.2c0.3,0,0.4,0.1,0.4,0.4v3.4c0,0.7-0.1,1.3-0.4,2c-0.3,0.6-0.6,1.2-1.1,1.6
		c-0.5,0.5-1,0.8-1.6,1.1c-0.6,0.3-1.3,0.4-2,0.4h-5c-0.7,0-1.3-0.1-2-0.4c-0.6-0.3-1.2-0.6-1.6-1.1c-0.5-0.5-0.8-1-1.1-1.6
		c-0.3-0.6-0.4-1.3-0.4-2v-20c0-0.7,0.1-1.3,0.4-2c0.3-0.6,0.6-1.2,1.1-1.6c0.5-0.5,1-0.8,1.6-1.1c0.6-0.3,1.3-0.4,2-0.4h5
		c0.7,0,1.3,0.1,2,0.4c0.6,0.3,1.2,0.6,1.6,1.1c0.5,0.5,0.8,1,1.1,1.6c0.3,0.6,0.4,1.3,0.4,2v3.4c0,0.3-0.1,0.4-0.4,0.4l-4.3-1.2
		C141.4,66.4,141.3,66.3,141.3,66.1z"/>
	<path d="M165.2,84.3v4.2c0,0.3-0.1,0.4-0.4,0.4h-14.2c-0.3,0-0.4-0.1-0.4-0.4V59.2c0-0.3,0.1-0.4,0.4-0.4h14.2
		c0.3,0,0.4,0.1,0.4,0.4l-1.2,4.3c-0.1,0.2-0.2,0.3-0.4,0.3h-8.5v7.5h5.9c0.3,0,0.4,0.1,0.4,0.4V76c0,0.3-0.1,0.4-0.4,0.4h-5.9v7.5
		h9.6C165.1,83.9,165.2,84,165.2,84.3z"/>
	<path d="M181.9,59.2l-1.2,4.3c-0.1,0.2-0.2,0.3-0.4,0.3h-3.5v24.7c0,0.3-0.1,0.4-0.4,0.4h-4.2c-0.3,0-0.4-0.1-0.4-0.4V63.9h-4.6
		c-0.3,0-0.4-0.1-0.4-0.4v-4.2c0-0.3,0.1-0.4,0.4-0.4h14.3C181.8,58.8,181.9,59,181.9,59.2z"/>
	<path d="M207.1,75.1c0.1,0.3,0.2,0.8,0.2,1.2v7.5c0,0.7-0.1,1.3-0.4,2c-0.3,0.6-0.6,1.2-1.1,1.6c-0.5,0.5-1,0.8-1.6,1.1
		c-0.6,0.3-1.3,0.4-2,0.4h-9.6c-0.3,0-0.4-0.1-0.4-0.4V59.2c0-0.3,0.1-0.4,0.4-0.4h8.4c0.5,0,0.9,0.1,1.2,0.2c1.1,0.3,2,0.9,2.7,1.7
		c0.7,0.9,1.1,1.9,1.1,3.1v5c0,1.2-0.4,2.3-1.2,3.2c0.5,0.3,1,0.8,1.4,1.3C206.7,73.9,207,74.5,207.1,75.1z M197.2,63.9v7.5h3.4
		c0.3,0,0.4-0.1,0.4-0.4v-6.7c0-0.3-0.1-0.4-0.4-0.4H197.2z M197.2,83.9h4.6c0.3,0,0.4-0.1,0.4-0.4v-6.7c0-0.3-0.1-0.4-0.4-0.4h-4.6
		V83.9z"/>
	<path d="M220.6,88.9c-0.1,0-0.1,0-0.2,0c-0.1-0.1-0.2-0.2-0.2-0.3V84h-4.6l-0.3,4.6c0,0.2,0,0.3,0,0.3c0,0-0.1,0-0.3,0h-4.2
		c-0.1,0-0.1,0-0.2,0c-0.1-0.1-0.2-0.2-0.2-0.3l1.4-29c0-0.2,0-0.3,0-0.5c0-0.2,0.1-0.2,0.3-0.2h11.7c0.2,0,0.3,0.1,0.3,0.2
		c0,0.2,0,0.3,0,0.5l1.4,29c0,0.2-0.1,0.3-0.2,0.3c-0.1,0-0.3,0-0.5,0H220.6z M219.1,64.2h-2.8L215.6,79h4.3L219.1,64.2z"/>
	<path d="M254,59.2v29.3c0,0.3-0.1,0.4-0.4,0.4h-24.3c-0.3,0-0.4-0.1-0.4-0.4V59.2c0-0.3,0.1-0.4,0.4-0.4h4.2c0.3,0,0.4,0.1,0.4,0.4
		v24.7h5V59.2c0-0.3,0.1-0.4,0.4-0.4h4.2c0.3,0,0.4,0.1,0.4,0.4v24.7h5V59.2c0-0.3,0.1-0.4,0.4-0.4h4.2C253.8,58.8,254,59,254,59.2z
		"/>
	<path d="M271.3,59.3l-4.9,29.3c-0.1,0.2-0.2,0.3-0.4,0.3h-6c-0.2,0-0.3-0.1-0.4-0.3l-0.7-4.2c-0.1-0.3,0.1-0.5,0.4-0.5h2.9l0.8-5
		h-3c-0.2,0-0.3-0.1-0.4-0.3l-3.2-19.3c0-0.1,0-0.3,0.1-0.3c0.1-0.1,0.2-0.1,0.3-0.1h4.2c0.3,0,0.4,0.1,0.4,0.3l2.5,14.7l2.5-14.7
		c0.1-0.2,0.2-0.3,0.4-0.3h4.2c0.1,0,0.3,0,0.3,0.1C271.3,59,271.3,59.2,271.3,59.3z"/>
	<path d="M305.2,88.5c0,0.3-0.1,0.4-0.4,0.4h-4.2c-0.2,0-0.4-0.1-0.4-0.4l-1.2-15.9l-3.7,16c-0.1,0.2-0.2,0.3-0.4,0.3h-4.4
		c-0.2,0-0.3-0.1-0.4-0.3l-3.7-16l-1.2,15.9c-0.1,0.3-0.2,0.4-0.4,0.4h-4.2c-0.3,0-0.4-0.1-0.4-0.4l2.5-29.3c0-0.3,0.1-0.4,0.4-0.4
		h4.3c0.2,0,0.3,0.1,0.4,0.3l4.9,21l4.9-21c0.1-0.2,0.2-0.3,0.4-0.3h4.3c0.3,0,0.4,0.1,0.4,0.4L305.2,88.5z"/>
	<path d="M324,84.3v4.2c0,0.3-0.1,0.4-0.4,0.4h-14.2c-0.3,0-0.4-0.1-0.4-0.4V59.2c0-0.3,0.1-0.4,0.4-0.4h14.2c0.3,0,0.4,0.1,0.4,0.4
		l-1.2,4.3c-0.1,0.2-0.2,0.3-0.4,0.3h-8.5v7.5h5.9c0.3,0,0.4,0.1,0.4,0.4V76c0,0.3-0.1,0.4-0.4,0.4h-5.9v7.5h9.6
		C323.8,83.9,324,84,324,84.3z"/>
	<path d="M342.4,76.4v7.5c0,0.7-0.1,1.3-0.4,2c-0.3,0.6-0.6,1.2-1.1,1.6c-0.5,0.5-1,0.8-1.6,1.1c-0.6,0.3-1.3,0.4-2,0.4h-9.6
		c-0.3,0-0.4-0.1-0.4-0.4V59.2c0-0.3,0.1-0.4,0.4-0.4h12.9c0.1,0,0.3,0.1,0.3,0.2c0.1,0.1,0.1,0.2,0.1,0.4l-1,4.2
		c-0.1,0.2-0.2,0.3-0.4,0.3h-7.2v7.5h5c0.7,0,1.3,0.1,2,0.4c0.6,0.3,1.1,0.6,1.6,1.1c0.4,0.4,0.8,1,1.1,1.6
		C342.2,75,342.4,75.7,342.4,76.4z M337.3,76.8c0-0.3-0.1-0.4-0.4-0.4h-4.6v7.5h4.6c0.3,0,0.4-0.1,0.4-0.4V76.8z"/>
	<path d="M360.4,84.3v4.2c0,0.3-0.1,0.4-0.4,0.4h-14.2c-0.3,0-0.4-0.1-0.4-0.4V59.2c0-0.3,0.1-0.4,0.4-0.4H360
		c0.3,0,0.4,0.1,0.4,0.4l-1.2,4.3c-0.1,0.2-0.2,0.3-0.4,0.3h-8.5v7.5h5.9c0.3,0,0.4,0.1,0.4,0.4V76c0,0.3-0.1,0.4-0.4,0.4h-5.9v7.5
		h9.6C360.3,83.9,360.4,84,360.4,84.3z"/>
	<path d="M379.1,59.2v29.3c0,0.3-0.1,0.4-0.4,0.4h-4.2c-0.3,0-0.4-0.1-0.4-0.4V63.9h-2.5l-2.5,24.7c0,0.2-0.1,0.3-0.4,0.3h-5.5
		c-0.3,0-0.4-0.1-0.4-0.4v-4.2c0-0.3,0.1-0.4,0.4-0.4h0.9c0.3,0,0.4-0.1,0.4-0.3l2-24.3c0.1-0.3,0.2-0.4,0.4-0.4h11.7
		C378.9,58.8,379.1,59,379.1,59.2z"/>
	<path d="M398.8,83.9c0,0.7-0.1,1.3-0.4,2c-0.3,0.6-0.6,1.2-1.1,1.6c-0.5,0.5-1,0.8-1.6,1.1c-0.6,0.3-1.3,0.4-2,0.4h-9.6
		c-0.3,0-0.4-0.1-0.4-0.4V59.2c0-0.3,0.1-0.4,0.4-0.4h4.2c0.3,0,0.4,0.1,0.4,0.4v12.2h5c0.7,0,1.3,0.1,2,0.4
		c0.6,0.3,1.2,0.6,1.6,1.1c0.5,0.5,0.8,1,1.1,1.6c0.3,0.6,0.4,1.2,0.4,1.9V83.9z M393.8,76.8c0-0.3-0.1-0.4-0.4-0.4h-4.6v7.5h4.6
		c0.3,0,0.4-0.1,0.4-0.4V76.8z"/>
</g>
<text transform="matrix(1 0 0 1 836.12 87.3296)"><tspan x="0" y="0" class="st3" style="font-family:'Stengazeta-Regular'; font-size:43px;">EURO DRY CLEANING </tspan><tspan x="0" y="45.6" style="font-family:'Stengazeta-Regular'; font-size:43px;">СПАСЕТ ВАШУ МЕБЕЛЬ</tspan></text>
</svg>
