<svg width="95" height="64" viewBox="0 0 95 64" fill="none" xmlns="http://www.w3.org/2000/svg">
<path d="M49.8753 13.27L49.8653 15H40.9653V0.639999H49.8653V2.37H43.1053V6.92H48.5453V8.59H43.1053V13.27H49.8753ZM58.1083 13.29C58.6816 13.29 59.1949 13.1933 59.6483 13C60.1016 12.8067 60.4849 12.5367 60.7983 12.19C61.1116 11.8367 61.3516 11.42 61.5183 10.94C61.6849 10.4533 61.7683 9.91667 61.7683 9.33V0.639999H63.8883V9.33C63.8883 10.17 63.7549 10.9467 63.4883 11.66C63.2216 12.3733 62.8383 12.99 62.3383 13.51C61.8383 14.03 61.2316 14.4367 60.5183 14.73C59.8049 15.0233 59.0016 15.17 58.1083 15.17C57.2149 15.17 56.4116 15.0233 55.6983 14.73C54.9849 14.4367 54.3783 14.03 53.8783 13.51C53.3783 12.99 52.9949 12.3733 52.7283 11.66C52.4616 10.9467 52.3283 10.17 52.3283 9.33V0.639999H54.4583V9.32C54.4583 9.90667 54.5383 10.4433 54.6983 10.93C54.8649 11.4167 55.1049 11.8367 55.4183 12.19C55.7316 12.5367 56.1149 12.8067 56.5683 13C57.0216 13.1933 57.5349 13.29 58.1083 13.29ZM71.3244 7.56C71.871 7.56 72.351 7.49333 72.7644 7.36C73.1844 7.22667 73.5344 7.04 73.8144 6.8C74.0944 6.55333 74.3044 6.26333 74.4444 5.93C74.5844 5.59 74.6544 5.21667 74.6544 4.81C74.6544 3.98333 74.381 3.36 73.8344 2.94C73.2944 2.52 72.481 2.31 71.3944 2.31H69.3844V7.56H71.3244ZM78.0244 15H76.1244C75.7444 15 75.4677 14.85 75.2944 14.55L71.7444 9.57C71.631 9.40333 71.5077 9.28667 71.3744 9.22C71.241 9.14667 71.041 9.11 70.7744 9.11H69.3844V15H67.2544V0.639999H71.3944C72.321 0.639999 73.1177 0.736666 73.7844 0.929999C74.4577 1.11667 75.011 1.38667 75.4444 1.74C75.8844 2.08667 76.2077 2.50667 76.4144 3C76.6277 3.49333 76.7344 4.04667 76.7344 4.66C76.7344 5.16 76.6577 5.63 76.5044 6.07C76.351 6.51 76.1244 6.90667 75.8244 7.26C75.531 7.60667 75.171 7.90667 74.7444 8.16C74.3177 8.41333 73.8344 8.60667 73.2944 8.74C73.561 8.9 73.791 9.12333 73.9844 9.41L78.0244 15ZM93.0953 7.82C93.0953 8.89333 92.922 9.88 92.5753 10.78C92.2353 11.6733 91.752 12.4467 91.1253 13.1C90.4986 13.7467 89.7486 14.25 88.8753 14.61C88.002 14.97 87.032 15.15 85.9653 15.15C84.9053 15.15 83.9353 14.97 83.0553 14.61C82.182 14.25 81.432 13.7467 80.8053 13.1C80.1853 12.4467 79.702 11.6733 79.3553 10.78C79.0086 9.88 78.8353 8.89333 78.8353 7.82C78.8353 6.75333 79.0086 5.77 79.3553 4.87C79.702 3.97 80.1853 3.19667 80.8053 2.55C81.432 1.89667 82.182 1.39 83.0553 1.03C83.9353 0.663333 84.9053 0.48 85.9653 0.48C87.032 0.48 88.002 0.663333 88.8753 1.03C89.7486 1.39 90.4986 1.89667 91.1253 2.55C91.752 3.19667 92.2353 3.97 92.5753 4.87C92.922 5.77 93.0953 6.75333 93.0953 7.82ZM90.9153 7.82C90.9153 6.96667 90.7986 6.2 90.5653 5.52C90.332 4.84 89.9986 4.26333 89.5653 3.79C89.1386 3.31667 88.6186 2.95333 88.0053 2.7C87.3986 2.44667 86.7186 2.32 85.9653 2.32C85.212 2.32 84.5286 2.44667 83.9153 2.7C83.3086 2.95333 82.7886 3.31667 82.3553 3.79C81.922 4.26333 81.5886 4.84 81.3553 5.52C81.122 6.2 81.0053 6.96667 81.0053 7.82C81.0053 8.68 81.122 9.45 81.3553 10.13C81.5886 10.8033 81.922 11.3767 82.3553 11.85C82.7886 12.3233 83.3086 12.6867 83.9153 12.94C84.5286 13.1867 85.212 13.31 85.9653 13.31C86.7186 13.31 87.3986 13.1867 88.0053 12.94C88.6186 12.6867 89.1386 12.3233 89.5653 11.85C89.9986 11.3767 90.332 10.8033 90.5653 10.13C90.7986 9.45 90.9153 8.68 90.9153 7.82ZM68.4563 31.82C68.4563 32.8933 68.2829 33.87 67.9363 34.75C67.5963 35.63 67.1129 36.3867 66.4863 37.02C65.8596 37.6467 65.1096 38.1333 64.2363 38.48C63.3629 38.8267 62.3929 39 61.3263 39H55.9263V24.64H61.3263C62.3929 24.64 63.3629 24.8133 64.2363 25.16C65.1096 25.5067 65.8596 25.9967 66.4863 26.63C67.1129 27.2567 67.5963 28.0133 67.9363 28.9C68.2829 29.78 68.4563 30.7533 68.4563 31.82ZM66.2763 31.82C66.2763 30.9667 66.1596 30.2033 65.9263 29.53C65.6929 28.85 65.3596 28.2767 64.9263 27.81C64.4996 27.3367 63.9796 26.9767 63.3663 26.73C62.7596 26.4833 62.0796 26.36 61.3263 26.36H58.0663V37.28H61.3263C62.0796 37.28 62.7596 37.1567 63.3663 36.91C63.9796 36.6633 64.4996 36.3067 64.9263 35.84C65.3596 35.3667 65.6929 34.7933 65.9263 34.12C66.1596 33.4467 66.2763 32.68 66.2763 31.82ZM75.2111 31.56C75.7578 31.56 76.2378 31.4933 76.6511 31.36C77.0711 31.2267 77.4211 31.04 77.7011 30.8C77.9811 30.5533 78.1911 30.2633 78.3311 29.93C78.4711 29.59 78.5411 29.2167 78.5411 28.81C78.5411 27.9833 78.2678 27.36 77.7211 26.94C77.1811 26.52 76.3678 26.31 75.2811 26.31H73.2711V31.56H75.2111ZM81.9111 39H80.0111C79.6311 39 79.3544 38.85 79.1811 38.55L75.6311 33.57C75.5178 33.4033 75.3944 33.2867 75.2611 33.22C75.1278 33.1467 74.9278 33.11 74.6611 33.11H73.2711V39H71.1411V24.64H75.2811C76.2078 24.64 77.0044 24.7367 77.6711 24.93C78.3444 25.1167 78.8978 25.3867 79.3311 25.74C79.7711 26.0867 80.0944 26.5067 80.3011 27C80.5144 27.4933 80.6211 28.0467 80.6211 28.66C80.6211 29.16 80.5444 29.63 80.3911 30.07C80.2378 30.51 80.0111 30.9067 79.7111 31.26C79.4178 31.6067 79.0578 31.9067 78.6311 32.16C78.2044 32.4133 77.7211 32.6067 77.1811 32.74C77.4478 32.9 77.6778 33.1233 77.8711 33.41L81.9111 39ZM88.7623 33.32V39H86.6423V33.32L81.3823 24.64H83.2523C83.439 24.64 83.589 24.6867 83.7023 24.78C83.8157 24.8667 83.909 24.9833 83.9823 25.13L87.1023 30.5C87.229 30.7467 87.3423 30.98 87.4423 31.2C87.549 31.42 87.6423 31.6367 87.7223 31.85C87.7957 31.6367 87.879 31.42 87.9723 31.2C88.0723 30.98 88.1857 30.7467 88.3123 30.5L91.4223 25.13C91.489 25.01 91.579 24.9 91.6923 24.8C91.8123 24.6933 91.9623 24.64 92.1423 24.64H94.0223L88.7623 33.32ZM11.7766 59.92C11.8966 59.92 11.9999 59.9667 12.0866 60.06L12.9266 60.98C12.3399 61.6733 11.6232 62.21 10.7766 62.59C9.93656 62.97 8.92323 63.16 7.73656 63.16C6.69656 63.16 5.75323 62.98 4.90656 62.62C4.06656 62.26 3.34656 61.7567 2.74656 61.11C2.15323 60.4633 1.69323 59.69 1.36656 58.79C1.0399 57.89 0.876563 56.9 0.876563 55.82C0.876563 54.74 1.04656 53.75 1.38656 52.85C1.73323 51.95 2.21656 51.1767 2.83656 50.53C3.45656 49.8833 4.19656 49.38 5.05656 49.02C5.92323 48.66 6.8799 48.48 7.92656 48.48C8.94656 48.48 9.85323 48.6467 10.6466 48.98C11.4399 49.3133 12.1299 49.7567 12.7166 50.31L12.0166 51.3C11.9699 51.3733 11.9099 51.4333 11.8366 51.48C11.7699 51.5267 11.6799 51.55 11.5666 51.55C11.4399 51.55 11.2899 51.4867 11.1166 51.36C10.9499 51.2333 10.7266 51.0933 10.4466 50.94C10.1732 50.78 9.83323 50.6367 9.42656 50.51C9.0199 50.3833 8.51323 50.32 7.90656 50.32C7.19323 50.32 6.5399 50.4467 5.94656 50.7C5.35323 50.9467 4.8399 51.3067 4.40656 51.78C3.9799 52.2467 3.64656 52.8233 3.40656 53.51C3.17323 54.19 3.05656 54.96 3.05656 55.82C3.05656 56.6933 3.1799 57.47 3.42656 58.15C3.67323 58.83 4.01323 59.4067 4.44656 59.88C4.8799 60.3533 5.3899 60.7133 5.97656 60.96C6.56323 61.2067 7.19656 61.33 7.87656 61.33C8.2899 61.33 8.6599 61.3067 8.98656 61.26C9.3199 61.2067 9.62323 61.13 9.89656 61.03C10.1766 60.93 10.4399 60.8033 10.6866 60.65C10.9332 60.49 11.1766 60.3 11.4166 60.08C11.4699 60.0333 11.5266 59.9967 11.5866 59.97C11.6466 59.9367 11.7099 59.92 11.7766 59.92ZM16.6669 48.24V63H14.7069V48.24H16.6669ZM28.6058 61.27L28.5958 63H19.6958V48.64H28.5958V50.37H21.8358V54.92H27.2758V56.59H21.8358V61.27H28.6058ZM38.8688 57.65L36.7388 52.08C36.5854 51.7 36.4321 51.22 36.2788 50.64C36.2054 50.9267 36.1288 51.1933 36.0488 51.44C35.9754 51.6867 35.9021 51.9067 35.8288 52.1L33.7088 57.65H38.8688ZM43.0788 63H41.4388C41.2521 63 41.0988 62.9533 40.9788 62.86C40.8588 62.7667 40.7721 62.6467 40.7188 62.5L39.4488 59.17H33.1188L31.8488 62.5C31.8021 62.6267 31.7154 62.7433 31.5888 62.85C31.4621 62.95 31.3088 63 31.1288 63H29.4888L35.2088 48.64H37.3588L43.0788 63ZM56.6316 48.64V63H55.5516C55.3849 63 55.2449 62.97 55.1316 62.91C55.0249 62.85 54.9149 62.7533 54.8016 62.62L46.6916 52.13C46.7049 52.31 46.7149 52.4867 46.7216 52.66C46.7349 52.8333 46.7416 52.9967 46.7416 53.15V63H44.8716V48.64H45.9716C46.1582 48.64 46.2982 48.6633 46.3916 48.71C46.4849 48.75 46.5882 48.8467 46.7016 49L54.8316 59.5C54.8116 59.3067 54.7949 59.12 54.7816 58.94C54.7749 58.7533 54.7716 58.58 54.7716 58.42V48.64H56.6316ZM62.3241 63H60.1841V48.64H62.3241V63ZM77.6277 48.64V63H76.5477C76.381 63 76.241 62.97 76.1277 62.91C76.021 62.85 75.911 62.7533 75.7977 62.62L67.6877 52.13C67.701 52.31 67.711 52.4867 67.7177 52.66C67.731 52.8333 67.7377 52.9967 67.7377 53.15V63H65.8677V48.64H66.9677C67.1543 48.64 67.2943 48.6633 67.3877 48.71C67.481 48.75 67.5843 48.8467 67.6977 49L75.8277 59.5C75.8077 59.3067 75.791 59.12 75.7777 58.94C75.771 58.7533 75.7677 58.58 75.7677 58.42V48.64H77.6277ZM92.9002 56.01V61.61C92.1735 62.13 91.4002 62.52 90.5802 62.78C89.7602 63.0333 88.8668 63.16 87.9002 63.16C86.7402 63.16 85.6902 62.98 84.7502 62.62C83.8168 62.26 83.0202 61.7567 82.3602 61.11C81.7002 60.4633 81.1902 59.69 80.8302 58.79C80.4768 57.89 80.3002 56.9 80.3002 55.82C80.3002 54.7333 80.4702 53.74 80.8102 52.84C81.1568 51.9333 81.6502 51.16 82.2902 50.52C82.9302 49.8733 83.7035 49.3733 84.6102 49.02C85.5235 48.66 86.5468 48.48 87.6802 48.48C88.2535 48.48 88.7835 48.5233 89.2702 48.61C89.7635 48.6967 90.2202 48.82 90.6402 48.98C91.0602 49.14 91.4468 49.3333 91.8002 49.56C92.1602 49.78 92.4935 50.03 92.8002 50.31L92.1902 51.27C92.0968 51.4233 91.9735 51.52 91.8202 51.56C91.6668 51.6 91.5002 51.5633 91.3202 51.45C91.1468 51.35 90.9535 51.2333 90.7402 51.1C90.5335 50.9667 90.2835 50.8433 89.9902 50.73C89.7035 50.6167 89.3668 50.52 88.9802 50.44C88.5935 50.36 88.1368 50.32 87.6102 50.32C86.8235 50.32 86.1135 50.45 85.4802 50.71C84.8468 50.9633 84.3068 51.33 83.8602 51.81C83.4135 52.29 83.0702 52.87 82.8302 53.55C82.5902 54.2233 82.4702 54.98 82.4702 55.82C82.4702 56.7 82.5968 57.49 82.8502 58.19C83.1035 58.8833 83.4602 59.4733 83.9202 59.96C84.3868 60.44 84.9502 60.8067 85.6102 61.06C86.2768 61.3133 87.0202 61.44 87.8402 61.44C88.1602 61.44 88.4568 61.4233 88.7302 61.39C89.0102 61.35 89.2768 61.2967 89.5302 61.23C89.7835 61.1633 90.0268 61.08 90.2602 60.98C90.5002 60.88 90.7368 60.77 90.9702 60.65V57.64H88.8502C88.7168 57.64 88.6068 57.6 88.5202 57.52C88.4402 57.44 88.4002 57.34 88.4002 57.22V56.01H92.9002Z" fill="#02B4BE"/>
</svg>
