<svg width="145" height="25" viewBox="0 0 145 25" fill="none" xmlns="http://www.w3.org/2000/svg">
<path d="M12.5 0L15.3064 8.63729H24.3882L17.0409 13.9754L19.8473 22.6127L12.5 17.2746L5.15268 22.6127L7.95911 13.9754L0.611794 8.63729H9.69357L12.5 0Z" fill="#FFFB00"/>
<path d="M42.5 0L45.3064 8.63729H54.3882L47.0409 13.9754L49.8473 22.6127L42.5 17.2746L35.1527 22.6127L37.9591 13.9754L30.6118 8.63729H39.6936L42.5 0Z" fill="#FFFB00"/>
<path d="M72.5 0L75.3064 8.63729H84.3882L77.0409 13.9754L79.8473 22.6127L72.5 17.2746L65.1527 22.6127L67.9591 13.9754L60.6118 8.63729H69.6936L72.5 0Z" fill="#FFFB00"/>
<path d="M102.5 0L105.306 8.63729H114.388L107.041 13.9754L109.847 22.6127L102.5 17.2746L95.1527 22.6127L97.9591 13.9754L90.6118 8.63729H99.6936L102.5 0Z" fill="#FFFB00"/>
<path d="M132.5 0L135.306 8.63729H144.388L137.041 13.9754L139.847 22.6127L132.5 17.2746L125.153 22.6127L127.959 13.9754L120.612 8.63729H129.694L132.5 0Z" fill="#FFFB00"/>
</svg>
