<svg width="512" height="89" viewBox="0 0 512 89" fill="none" xmlns="http://www.w3.org/2000/svg">
<path d="M150.784 0.315714L160.924 30.6797L160.947 30.748H161.019H193.824L167.286 49.5078L167.226 49.5507L167.249 49.6212L177.387 79.9796L150.842 61.2143L150.784 61.1735L150.726 61.2143L124.181 79.9796L134.319 49.6212L134.342 49.5507L134.282 49.5078L107.744 30.748H140.549H140.621L140.644 30.6797L150.784 0.315714Z" stroke="black" stroke-width="0.2"/>
<path d="M255.982 0.315714L266.122 30.6797L266.145 30.748H266.217H299.022L272.484 49.5078L272.424 49.5507L272.447 49.6212L282.585 79.9796L256.04 61.2143L255.982 61.1735L255.924 61.2143L229.379 79.9796L239.517 49.6212L239.541 49.5507L239.48 49.5078L212.942 30.748H245.748H245.82L245.842 30.6797L255.982 0.315714Z" stroke="black" stroke-width="0.2"/>
<path d="M361.179 0.315714L371.319 30.6797L371.342 30.748H371.414H404.219L377.682 49.5078L377.621 49.5507L377.645 49.6212L387.783 79.9796L361.237 61.2143L361.179 61.1735L361.122 61.2143L334.576 79.9796L344.714 49.6212L344.738 49.5507L344.677 49.5078L318.14 30.748H350.945H351.017L351.04 30.6797L361.179 0.315714Z" stroke="black" stroke-width="0.2"/>
<path d="M466.378 0.315714L476.517 30.6797L476.54 30.748H476.612H509.418L482.88 49.5078L482.819 49.5507L482.843 49.6212L492.981 79.9796L466.435 61.2143L466.378 61.1735L466.32 61.2143L439.775 79.9796L449.913 49.6212L449.936 49.5507L449.875 49.5078L423.338 30.748H456.143H456.215L456.238 30.6797L466.378 0.315714Z" stroke="black" stroke-width="0.2"/>
<path d="M45.5857 0.315714L55.7255 30.6797L55.7483 30.748H55.8203H88.6256L62.088 49.5078L62.0273 49.5507L62.0508 49.6212L72.1888 79.9796L45.6434 61.2143L45.5857 61.1735L45.528 61.2143L18.9826 79.9796L29.1206 49.6212L29.1441 49.5507L29.0835 49.5078L2.54582 30.748H35.3511H35.4231L35.4459 30.6797L45.5857 0.315714Z" stroke="black" stroke-width="0.2"/>
</svg>
